<?xml version="1.0" encoding="utf-8"?>
<!-- Generator: Adobe Illustrator 19.0.0, SVG Export Plug-In . SVG Version: 6.00 Build 0)  -->
<svg version="1.1" id="图层_1" xmlns="http://www.w3.org/2000/svg" xmlns:xlink="http://www.w3.org/1999/xlink" x="0px" y="0px"
	 viewBox="0 0 33 33" style="enable-background:new 0 0 33 33;" xml:space="preserve">
<style type="text/css">
	.st0{fill:#989898;}
	.st1{fill:#5ABAE0;}
</style>
<g id="XMLID_1956_">
	<g id="XMLID_1966_">
		<path id="XMLID_1967_" class="st0" d="M30.7,2.9H2.3c-0.8,0-1.5,0.7-1.5,1.5v24.5c0,0.8,0.7,1.5,1.5,1.5h28.4
			c0.8,0,1.5-0.7,1.5-1.5V4.3C32.2,3.5,31.5,2.9,30.7,2.9L30.7,2.9z M30.7,8.7v5.7h-8.5V8.7h7H30.7L30.7,8.7z M12.2,21.7V16h8.5v5.7
			H12.2L12.2,21.7z M20.7,23.1v5.7h-8.5v-5.7H20.7L20.7,23.1z M10.8,21.7H2.3V16h8.5V21.7L10.8,21.7z M20.7,8.7v5.7h-8.5V8.7H20.7
			L20.7,8.7z M22.2,16h8.5v5.7h-8.5V16L22.2,16z M12.6,4.3C13.4,4.3,14,5,14,5.8c0,0.8-0.7,1.5-1.5,1.5c-0.8,0-1.5-0.7-1.5-1.5
			C11.1,5,11.8,4.3,12.6,4.3L12.6,4.3z M8.2,4.3C9,4.3,9.6,5,9.6,5.8c0,0.8-0.7,1.5-1.5,1.5c-0.8,0-1.5-0.7-1.5-1.5
			C6.7,5,7.4,4.3,8.2,4.3L8.2,4.3z M3.8,4.3c0.8,0,1.5,0.7,1.5,1.5c0,0.8-0.7,1.5-1.5,1.5c-0.8,0-1.5-0.7-1.5-1.5
			C2.3,5,2.9,4.3,3.8,4.3L3.8,4.3z M3.8,8.7h7v5.7H2.3V8.7H3.8L3.8,8.7z M2.3,23.1h8.5v5.7H2.3V23.1L2.3,23.1z M22.2,28.8v-5.7h8.5
			v5.7H22.2L22.2,28.8z M22.2,28.8"/>
	</g>
	<rect id="XMLID_1965_" x="15.6" y="10.7" class="st1" width="1.8" height="1.8"/>
	<rect id="XMLID_1964_" x="4.1" y="9.2" class="st1" width="4.7" height="4.7"/>
	<rect id="XMLID_1963_" x="23.9" y="8.9" class="st1" width="5.4" height="5.4"/>
	<rect id="XMLID_1962_" x="14.1" y="16.4" class="st1" width="4.8" height="4.8"/>
	<rect id="XMLID_1961_" x="4.8" y="17.2" class="st1" width="3.3" height="3.3"/>
	<rect id="XMLID_1960_" x="25.5" y="17.7" class="st1" width="2.2" height="2.2"/>
	<rect id="XMLID_1959_" x="14.4" y="24" class="st1" width="4.2" height="4.2"/>
	<rect id="XMLID_1958_" x="4" y="23.6" class="st1" width="4.9" height="4.9"/>
	<rect id="XMLID_1957_" x="24.3" y="23.8" class="st1" width="4.6" height="4.6"/>
</g>
</svg>
