<?xml version="1.0" encoding="utf-8"?>
<!-- Generator: Adobe Illustrator 19.0.0, SVG Export Plug-In . SVG Version: 6.00 Build 0)  -->
<svg version="1.1" id="图层_1" xmlns="http://www.w3.org/2000/svg" xmlns:xlink="http://www.w3.org/1999/xlink" x="0px" y="0px"
	 viewBox="0 0 33 33" style="enable-background:new 0 0 33 33;" xml:space="preserve">
<style type="text/css">
	.st0{fill:#5ABAE0;}
</style>
<g id="XMLID_1892_">
	<path id="XMLID_1893_" class="st0" d="M29.8,15.7c0.7,0,1.3-0.6,1.3-1.3v-2.7c0-0.7-0.5-1.2-1.2-1.2h-28l0,5.2H29.8L29.8,15.7z
		 M22.5,8.6c0.7,0,1.3-0.4,1.3-1l0-2.6c0-0.7-0.7-1.3-1.3-1.3H1.9v5H22.5L22.5,8.6z M15.9,22.5c0.7,0,1.3-0.4,1.3-1l0-2.6
		c0-0.7-0.7-1.3-1.3-1.3h-14v5H15.9L15.9,22.5z M29.2,28.3l0-2.6c0-0.7-0.7-1.3-1.3-1.3h-26v5h26C28.6,29.4,29.2,29,29.2,28.3
		L29.2,28.3z M6.5,29.4"/>
</g>
</svg>
