<?xml version="1.0" encoding="utf-8"?>
<!-- Generator: Adobe Illustrator 19.0.0, SVG Export Plug-In . SVG Version: 6.00 Build 0)  -->
<svg version="1.1" id="图层_1" xmlns="http://www.w3.org/2000/svg" xmlns:xlink="http://www.w3.org/1999/xlink" x="0px" y="0px"
	 viewBox="0 0 33 33" style="enable-background:new 0 0 33 33;" xml:space="preserve">
<style type="text/css">
	.st0{fill:#5ABAE0;}
	.st1{fill:#FFBA00;}
</style>
<path id="XMLID_2344_" class="st0" d="M16.1,1.2c-8.3,0-15,6.7-15,15s6.7,15,15,15c8.3,0,15-6.7,15-15S24.4,1.2,16.1,1.2L16.1,1.2
	L16.1,1.2L16.1,1.2z M16.1,29.6c-7.4,0-13.4-6-13.4-13.4c0-7.4,6-13.4,13.4-13.4c7.4,0,13.4,6,13.4,13.4
	C29.5,23.6,23.5,29.6,16.1,29.6L16.1,29.6L16.1,29.6L16.1,29.6z M18.1,17.1c0,0.7-0.6,1.3-1.3,1.3c-0.7,0-1.2-0.5-1.2-1.2l-4.4-5.5
	l5.7,4.2C17.5,15.8,18.1,16.4,18.1,17.1L18.1,17.1L18.1,17.1L18.1,17.1z M9,19.2l1.1,1.1l-2,2L7,21.2L9,19.2L9,19.2L9,19.2z M8,15.4
	H5.2v-1.5H8V15.4L8,15.4L8,15.4z M8.7,7l2,2l-1.1,1.1l-2-2L8.7,7L8.7,7L8.7,7z M16.9,7.7h-1.5V4.9h1.5V7.7L16.9,7.7L16.9,7.7z
	 M23.1,10.7L22,9.7l2-2l1.1,1.1L23.1,10.7L23.1,10.7L23.1,10.7z M27.5,13.9v1.5h-2.9v-1.5H27.5L27.5,13.9L27.5,13.9z M23.6,19.5l2,2
	l-1.1,1.1l-2-2L23.6,19.5L23.6,19.5L23.6,19.5z M23.6,19.5"/>
<polygon id="XMLID_2338_" class="st1" points="11.6,22.7 14,22.7 14,26.7 11.6,26.7 11.6,22.7 11.6,22.7 "/>
<polygon id="XMLID_2337_" class="st1" points="15.3,22.7 17.8,22.7 17.8,26.7 15.3,26.7 15.3,22.7 15.3,22.7 "/>
<polygon id="XMLID_2285_" class="st1" points="18.9,22.7 21.4,22.7 21.4,26.7 18.9,26.7 18.9,22.7 18.9,22.7 "/>
</svg>
