<?xml version="1.0" encoding="utf-8"?>
<!-- Generator: Adobe Illustrator 19.0.0, SVG Export Plug-In . SVG Version: 6.00 Build 0)  -->
<svg version="1.1" id="图层_1" xmlns="http://www.w3.org/2000/svg" xmlns:xlink="http://www.w3.org/1999/xlink" x="0px" y="0px"
	 viewBox="0 0 33 33" style="enable-background:new 0 0 33 33;" xml:space="preserve">
<style type="text/css">
	.st0{opacity:0.75;fill:#5ABAE0;}
	.st1{fill:#5ABAE0;}
	.st2{opacity:0.55;fill:#5ABAE0;}
	.st3{opacity:0.8;fill:#5ABAE0;}
	.st4{opacity:0.65;fill:#5ABAE0;}
	.st5{opacity:0.25;fill:#5ABAE0;}
	.st6{fill:#FFBE58;}
</style>
<g id="XMLID_1600_">
	<path id="XMLID_1663_" class="st0" d="M27,4.8L27,4.7l-0.1-0.2l-0.1-0.1l-0.1,0.1l-0.1,0.1l0,0h0h0l-0.2,0c0,0,0,0-0.1,0l0,0.1
		l-0.1,0.1l0,0l-0.1,0c0,0-0.1,0-0.2-0.1l0,0c-0.1-0.1-0.2-0.3-0.2-0.3V4.2v0v0l0,0l-0.2-0.1l0,0.1c0,0,0,0.1-0.1,0.1l-0.1,0l0,0v0
		l-0.1,0l0,0.1l-0.2-0.1h0l0,0l0,0c0-0.1,0-0.2,0-0.3c0-0.1,0-0.1,0-0.1l0-0.1l0-0.1l-0.2,0c-0.1,0-0.2,0.1-0.2,0.2v0l0,0L24.4,4
		l0.1,0h0l0,0l0,0l0.1,0h0l0,0v0l0,0.2l0,0.1v0v0v0l-0.2,0.5c0,0.1-0.1,0.2-0.1,0.5v0l-0.1,0.2l0.1,0.1v0c0,0.1,0,0.2,0,0.2l0,0
		c-0.1,0-0.2,0.2-0.5,0.5l0,0l0,0l0,0c-0.1-0.1-0.2-0.1-0.2-0.2c0,0-0.2-0.1-0.3-0.1l0,0.3l0,0L23,7.2c0,0.1,0,0.2,0,0.5L23,7.7
		l0-0.1h0l0,0l0.2-0.1l0.5,0.1l0.1-0.1l0.1-0.1l0,0l0,0l0,0l0.2,0l0.2,0c0.1,0,0.2,0.1,0.3,0.3C24.9,7.8,25,7.9,25.1,8
		c0,0.1,0,0.1,0,0.2c0,0.1-0.1,0.1-0.1,0.1h0c-0.4,0-0.6,0-0.7,0l-0.2,0.1c-0.2,0.2-0.4,0.2-0.5,0.2l-0.1,0l-0.1,0.4
		c0,0.1-0.1,0.2-0.1,0.2c-0.1,0.1-0.1,0.1-0.3,0.1c-0.1,0-0.3,0.1-0.4,0.1l-0.1,0.3l0,0h0h0L22.1,10h0l-0.2,0
		c-0.1,0-0.2-0.1-0.3-0.1c-0.1,0-0.2-0.1-0.3,0c-0.1,0.1-0.1,0.3-0.1,0.5c0,0.1,0,0.1,0.1,0.2l0.1,0l0.1,0l0,0.2
		c0,0.1,0,0.1-0.1,0.2c0,0-0.1,0.1-0.2,0.1l-0.1,0c-0.1,0-0.2,0.2-0.5,0.6v0h0l-0.2,0.1c0,0,0.1,0,0.1,0c0,0,0,0-0.1,0l-0.6,0
		c-0.7,0-1.3,0.2-1.7,0.6l0,0l0,0h0l-0.3,0l0,0h0l-0.1-0.2l-0.3,0.1c-0.1,0-0.3,0-0.5-0.1c-0.2-0.1-0.4-0.2-0.5-0.3
		c-0.1-0.1-0.3-0.1-0.4-0.2l-0.2,0l-0.3,0c-0.2,0-0.4,0-0.6,0c-0.2,0-0.5-0.1-0.8-0.2l0,0h0h0l0,0v0l0,0.1l0.1,0.1l0.2,0.2l0,0
		l0,0.1v0h0l-0.1,0.1l0.1,0.1c0,0,0.1,0.1,0.1,0.1l0,0.1l0.1,0.1v0l0,0.1v0.1l0.1,0.1l0,0l0,0c0-0.1,0.1-0.1,0.1-0.1l0.1,0l0.4,0
		l0.2-0.1l0,0l0,0l0.1,0.2h0l0,0c0,0,0,0.1,0,0.1l-0.2,0.3l0,0.1l0.1,0.1l0.1,0.1h0c0,0.1,0.1,0.1,0.1,0.1c0.1,0,0.1,0.1,0.1,0.1
		l0,0l0.1,0l0,0h0l0,0.1l0,0l0,0.1l0,0.1l0.2,0h0l0,0v0l0,0l0.1,0.1l0.1,0.1l0.1-0.1l0-0.1l-0.1-0.1l0,0v0l0.1-0.2h0.2l0,0l0.3,0.1
		l0.1,0l0.1-0.1c0.1-0.2,0.2-0.2,0.3-0.2l0.1,0c0.1,0,0.1,0,0.1,0c0,0,0,0,0,0c0,0,0,0.1,0.1,0.2v0v0l0,0.1v0l0,0.1l0,0v0l0,0
		l-0.1,0.1l0,0l0,0l-0.3,0.1l0,0.1l0,0.2l0,0.1l0.1,0.1l0,0l0.1,0.1h0.3l0.3,0l0,0c0,0,0.1-0.1,0.1-0.1l0.2,0l0,0c0-0.1,0-0.1,0-0.1
		l0.1-0.1v-0.2v0l0.1-0.4l0,0v0h0v0l0.2-0.2l0,0l0.2,0.1l0,0C18.9,13.9,19,14,19,14l0,0.2l-0.1,0.1l-0.1,0.1v0.2l0.1,0.1l0.1,0l0,0
		l0.1,0c0.1,0,0.1,0.1,0.1,0.2l0.1,0h0l0,0h0l0.3,0.1l0.1,0l0.2,0l0.1-0.1l0.1-0.4l0-0.2v0l0,0l0,0l0.1-0.1l0.1-0.1l0,0l0.1-0.1
		l0.1-0.1l0.1,0l-0.1-0.2l0.3,0l0,0v0l0,0l0.1,0.1l0,0v0l0-0.1v0l0,0h0l0.1,0h0.1l0.1-0.1h0l0,0h0l0.1,0l0.1-0.1l0.1-0.1v-0.1
		c0,0,0-0.1,0.1-0.1l0,0h0h0l0.1,0l0.1,0l0-0.1l0.1,0h0h0l0,0l0.2,0l0.1,0l0.1-0.1l0.1-0.1l-0.1-0.1v0l0,0l0-0.1l0,0l0-0.1v0
		l0.1-0.1c0,0,0-0.1,0.1-0.1l0.1-0.2v0h0l0.1-0.1l0.1-0.2l0.1,0.1l0,0v0l0,0.1v0l0,0.1l0.1,0h0l0,0l0,0l0,0l0,0l0.1-0.2l0.1-0.1l0,0
		l0,0l0.2,0.1l0.1-0.1l0,0h0l0.1,0l0.1-0.1v-0.2l0.1-0.2l0,0h0l0.2,0l0.1-0.1h0h0l0.1,0h0v0l0,0l0.1,0.1v0l0,0v0l0,0.1l0.1,0.1
		l0.1-0.1l0,0c0,0,0.1,0.1,0.1,0.1v0.1l-0.1,0.1l0,0.1l0.1,0.1l0.3,0l0,0l0,0l0,0l0,0l0,0l0.1-0.1h0l0.1-0.1l0-0.1l-0.1-0.5l0.2,0.1
		h0h0l0.1,0.1l0.1,0.1l0.1-0.1l0.3-0.3l0,0h0l0.1-0.1l0.1-0.2l0,0l0.2,0h0.1c0-0.1,0-0.1,0-0.1l0.1-0.1l0,0l0.1,0.1l0.2,0l0.1-0.1
		l0.1-0.1l0-0.1l-0.1,0.1l0,0l0,0L27,10.2l0,0l0.1-0.2l0-0.1l0-0.1l-0.1,0v0l0,0l0,0l-0.1-0.2l0,0l-0.1,0.1l-0.1,0.1l0,0l0,0l0,0
		l-0.1-0.1v0l-0.1-0.2v0l0-0.1v0l0,0V8.9l0-0.1l-0.1,0h0v0l-0.2-0.2l0,0L26,8.4v0v0h0l0,0l0.1,0h0c0,0,0.1,0,0.1,0.1l0.1,0.1
		l0.1-0.1l0.1-0.1V8.2l0-0.2l0-0.1l-0.2,0V7.8l-0.1-0.2l0,0l-0.1-0.1l0,0v0l0,0l0.2-0.2v0l0,0v0h0l0.1,0l0.1-0.1l0.1-0.3h0v0
		l0.1-0.1v0h0h0l0.1,0v0l0.1,0.1l0,0L27,6.5l-0.1-0.2l0,0v0l0-0.2v0L27,6l0.1-0.1l0-0.1c0,0,0-0.1-0.1-0.2l0,0l0,0V5.4v0l0-0.2
		C27,5.1,27,5.1,27,5L27,4.8z"/>
	<path id="XMLID_1661_" class="st1" d="M16.5,14h-0.1l0,0.1l0.1,0.1v0v0l0,0.1l0,0v0l0,0l-0.2,0.1l0,0l0,0h0h0
		c-0.1,0-0.2-0.1-0.2-0.1l0-0.1l-0.2,0l-0.1-0.3c0,0-0.1,0-0.1-0.1l0,0c0-0.1-0.1-0.1-0.1-0.1c-0.1,0-0.1-0.1-0.2-0.1l-0.1-0.1h0
		l0,0l0,0l-0.1-0.1l0,0l0-0.1v0l0.2-0.3c0,0,0,0,0,0l0-0.1l-0.1,0.1h0v0h0l-0.3,0l-0.1,0l0,0l0,0c0,0-0.1,0.1-0.1,0l0,0l0,0
		l-0.1-0.1l0-0.2c-0.1,0-0.1-0.1-0.1-0.1l0-0.2l-0.1-0.1L14,12.3l0,0l0.1-0.2l0-0.1L14,11.8h0v0l-0.1-0.1v0l0,0l0-0.1l-0.1-0.1v0
		l0,0l0,0l-0.1-0.1l-0.1,0l-0.1,0l0,0l0,0.2v0.2l0,0l-0.1,0.1l0,0v0l0,0l-0.1,0C13,12,12.9,12,12.8,12l0,0l0,0h0L12.5,12l-0.1,0.1
		c0,0-0.1,0.1-0.1,0.1l-0.2,0.1l-0.1,0.1v0l0,0c0,0.1-0.1,0.1-0.1,0.1l-0.1,0.1v0l0,0l-0.1,0c0,0-0.1,0-0.1,0l-0.2,0l0,0.1l-0.1,0.1
		l0,0.1l0,0.3l0.1,0.1v0l0,0.1h0.1l0.2,0l0.2,0l0.1,0h0h0l0.2,0.1l0,0h0l0.1,0.1l0.2,0.1h0l0.1,0.1l0.4,0.3l0.2,0.1l0.1,0l0.1-0.1
		l0-0.2c0-0.1,0-0.1,0.1-0.1l0,0l0.5,0.3l0.1,0l0.1-0.1h0l0.1,0l0.1-0.1l0,0l0,0l0.3,0.2l0,0l0.2,0.1c0,0,0.1,0.1,0.2,0.2l0.1,0.1
		l0.1,0l0.1-0.1l0.2,0.1h0h0l0,0l0.1,0.2l0.3,0.3l0,0L16,15l0.3-0.1l0,0.2l0.1,0.1l0,0v0l0.1,0.2v0v0v0l0.1,0.5l0.1,0.2l-0.1,0.4v0
		l-0.1,0v0.1l0,0l-0.1,0.2h0l-0.2,0L16,17.1c0,0,0.1,0,0.1,0.1c0.1,0,0.1,0.1,0,0.2v0L16,17.5h0l0,0h0h0l-0.4-0.1l0,0.1l0,0.3
		l0.3,0.1v0l0,0l0.1,0l0,0l0,0l0,0h0l0.1,0h0.1l0,0l0-0.1l0,0l0,0l0-0.1v0v0l0,0v0l0-0.1l0,0l0,0l0,0l0.1-0.1l0,0l0.1-0.1h0v0h0l0,0
		l0.2,0v0c0,0.1,0,0.1,0,0.1l0,0.1l0,0.1l0.1,0.1l0.4,0h0h0v0v0l0,0.1l0.1,0.1l0.1,0l0,0v0l0,0v0.1v0.1l0,0.1l0.1,0
		c0.1,0,0.1,0,0.2,0l0.2,0.1l0.1-0.1l0.1-0.1l0-0.1l0,0l0,0l0,0v0l0-0.2l0-0.1l0,0v0l0,0v0l0.1-0.1l0,0l0,0l0.1-0.1h0h0.2l0,0l0-0.1
		l0-0.1l-0.1-0.1l0,0v0v-0.2v0l0,0l0-0.1l0,0l0,0l0,0l0.2-0.3l0,0h0l0,0h0l0.1,0l0.2,0.1l0.1,0l0-0.1l0,0v0c0,0,0-0.1,0.1-0.1
		l0.1-0.1l0,0l0,0v0c0.1,0,0.1,0,0.1,0l0.1,0h0l0,0l0.1,0l0.1-0.2v-0.1c0-0.1,0-0.1,0-0.1l0.1-0.1l-0.1-0.1l-0.1-0.1l-0.2-0.1
		c0,0-0.1,0-0.2-0.1l-0.1-0.1h0l0,0l-0.1-0.2H19l0,0h0l-0.1-0.1l-0.1,0.1l0,0.4l0,0.1h0.1l0,0l0.1,0v0v0l0.1,0.1h0v0l0,0v0l0,0.2v0
		v0l0,0c0,0-0.1,0-0.1,0.1l0,0l0,0h0l-0.1,0l-0.1,0h0l0,0l0,0l0,0.2c0,0,0,0,0,0.1h-0.1c0,0-0.1,0-0.1,0l-0.1-0.1l0,0h0v0l-0.1-0.1
		c0,0-0.1,0-0.1-0.1h0h0l-0.1-0.1h0v0l0,0l0-0.1l0-0.1h0v0l0,0l0-0.1v0l0-0.1l-0.1-0.1v0l0-0.3l-0.1-0.1h0l0,0l0,0l-0.1-0.1l-0.3,0
		c-0.1,0-0.1-0.1-0.1-0.1h-0.1c0,0-0.1,0-0.1-0.1l0,0c0,0-0.1-0.1-0.1-0.1l0,0l0,0l0-0.1l0,0v0v0l0,0l0-0.2v0l0-0.1v0v0h0l0.3-0.1
		l0.1-0.1l0-0.1l0-0.1c0-0.1-0.1-0.2-0.1-0.2l-0.1,0l-0.1,0c0,0-0.1,0.1-0.2,0.2L16.9,14h0l0,0c-0.1,0-0.2,0-0.2,0L16.5,14z"/>
	<path id="XMLID_1659_" class="st2" d="M18.4,14l-0.1,0.4v0.2v0l-0.1,0.1l0,0.1c0,0.1,0,0.1-0.1,0.1l0,0h0l0,0l-0.2,0l-0.1,0.1
		l-0.3,0l0,0h-0.1l0.1,0.1l0.3,0h0h0l0,0v0l0.1,0.2l0.1,0.1c0,0,0,0.1,0,0.2l0,0.2l0.1,0.1h0v0h0l0,0.1v0.1l-0.1,0.1l0,0.1l0,0.1
		l0.1,0.1c0.1,0,0.1,0.1,0.2,0.1l0.1,0.1c0.1,0,0.1,0.1,0.1,0.1l0.1,0h0l0-0.2c0,0,0-0.1,0-0.1c0,0,0,0,0.1,0l0.1,0l0,0l0,0h0l0,0
		l0.1,0l0.1,0v0l0-0.2l0-0.1l-0.1,0l-0.1,0h0l0,0l0-0.2l0-0.4l0,0l0.1-0.2l0.2,0.1h0.1l0.1-0.5c0-0.1,0-0.1-0.1-0.1l0,0v0h0l-0.1,0
		l0,0l0,0l-0.1-0.1v0l0,0v-0.2l0-0.1l0,0c0,0,0-0.1,0-0.1l0,0l0-0.1l-0.1-0.1l-0.1-0.1L18.4,14z"/>
	<path id="XMLID_1657_" class="st1" d="M13.3,11.3L13.3,11.3L13.3,11.3L13.3,11.3l-0.2-0.7L13,10.5v0l0-0.3l-0.3,0h0h0v0l0,0v0
		c0-0.1-0.1-0.2-0.3-0.3c-0.1-0.1-0.2-0.1-0.2-0.1c-0.1,0-0.1-0.1-0.1-0.1c-0.1-0.1-0.4-0.1-1-0.1h0l0,0l-0.1-0.1
		c0-0.1-0.1-0.1-0.1-0.2c0-0.1,0.1-0.4,0.3-0.8L10.9,8l0,0l-0.1-0.5c0-0.1-0.1-0.1-0.4-0.2c0,0-0.1,0-0.1-0.1
		c-0.1,0-0.1-0.1-0.2-0.2c0-0.1-0.1-0.2-0.2-0.2l0,0l0,0L9.8,6.4l-0.4,0l0,0.1c0,0.2-0.1,0.2-0.1,0.2L9.1,6.8C8.9,6.8,8.8,6.9,8.8,7
		c0,0,0,0.1-0.1,0.2c0,0.1,0,0.2-0.1,0.3c0,0.1-0.1,0.2-0.2,0.2c-0.2,0.1-0.5-0.1-1-0.4L6.8,8.1l0.1,0.3h0l0,0l0,0v0
		c0,0-0.1,0.1-0.1,0.1c-0.1,0-0.1,0-0.2-0.1c-0.1,0-0.2-0.1-0.5-0.1L6,8.4l0,0l-0.2,0l-0.2,0l0.1,0.1c0.1,0.1,0.1,0.2,0.1,0.2
		L5.7,9.2l0,0.3h0v0l0,0l0,0L5.6,10c0,0,0,0.1,0,0.1h0v0l0,0c0-0.1,0-0.1-0.1-0.1c0,0,0,0,0,0.1c0,0.1-0.1,0.2-0.2,0.4L5,10.5
		l-0.1,0l0,0h0l-0.5,0l-0.2,0.2h0h0h0l-0.5-0.1c-0.1,0.1-0.2,0.1-0.2,0.1c-0.1,0-0.2,0-0.4,0.1l-0.2,0.2l0,0l-0.3,0v-0.3H2.3l0,0.1
		l-0.2,0h0l0,0l0,0h0c-0.1-0.1-0.2-0.1-0.3-0.1c-0.1,0-0.1,0-0.3,0.1c-0.1,0.1-0.2,0.2-0.3,0.3c0,0,0,0,0,0.1c0,0.1,0,0.1,0,0.2
		c0,0.1,0,0.1-0.1,0.1c0,0-0.1,0.1-0.1,0.2L1.3,12l0.2-0.2L1.6,12v0l0,0.4v0h0L1.6,13h0c-0.2,0-0.3,0-0.3,0c0,0,0.1,0.1,0.2,0.2
		l0.1,0h0l0,0l0.2,0.2c0.1,0.1,0.1,0.2,0,0.4l0,0.2l0.1,0h0.4l-0.2,0.2l0.1,0.1l0,0l0.1,0.1l0.4,0.2l0,0h0l0,0.6
		c0,0.1,0.1,0.2,0.3,0.3l0,0h0h0l0.4,0.1h0v0l0,0c0-0.1,0.1-0.1,0.1-0.2v0c0-0.1,0-0.1,0.1-0.2c0.1,0,0.1-0.1,0.1-0.1l0,0
		C3.9,15,4,15,4.1,15h0l0,0l0.1,0.1l0.5,0.1l0.3,0l0.2-0.1C5.2,15,5.3,15,5.3,15c0,0,0.1,0,0.1,0.1l0,0c0,0,0.1,0.1,0.1,0.1l0.1,0.1
		h0.1h0h0h0L6,15.4l0.3,0l0.2-0.1l0.4,0l0.2-0.1l0.2-0.1c0,0,0.1-0.1,0.2-0.1h0.4L8,15.1c0.1,0,0.1-0.1,0.2-0.1h0.2l0.1,0.1l0.3,0.1
		c0,0,0.1,0,0.2,0.1l0.1,0.1l0,0l0.3,0l0,0h0l0.1,0.1l0.2,0h0l0.2,0l0-0.1L10,15.3l0-0.1v0h0l0,0l0.1-0.1v0l0,0h0v0l0.1-0.1l0,0l0,0
		l0-0.1c0,0,0,0-0.1-0.1l0,0l-0.1-0.1l-0.1-0.1l0,0l0,0l0,0v0l0-0.1v-0.1l-0.1-0.2l0.2,0l0.1-0.1h0.2l0.2,0h0l0.1,0l0.2-0.1l0.2,0
		l0.1-0.1h0l0.3-0.1l0.1-0.1l0-0.1l-0.1-0.1v0l0,0v0l0-0.1l0,0v-0.2l0-0.1l0,0v0l0.1-0.1c0-0.1,0.1-0.1,0.1-0.1l0.2,0
		c0,0,0.1,0,0.1,0l0.3-0.4v0l0,0l0.2-0.1l0,0c0.1,0,0.1,0,0.1-0.1l0,0c0.1-0.1,0.1-0.1,0.1-0.1l0.3,0.1l0.2-0.1l0,0h0l0,0h0l0.1,0
		l0.1,0v-0.2L13.3,11.3L13.3,11.3L13.3,11.3L13.3,11.3L13.3,11.3L13.3,11.3z"/>
	<path id="XMLID_1655_" class="st0" d="M13.6,13.9L13.6,13.9c-0.1,0.1-0.1,0.1,0,0.2v0l0,0h0l-0.1,0.2l-0.1,0l0,0h0l-0.2-0.1h0v0
		L12.8,14l-0.1-0.1l-0.2-0.1v0l0,0h0l0,0l-0.1-0.1l-0.2-0.1l-0.1,0h0l-0.2,0h0l-0.2,0h-0.1l-0.1,0.1c0,0-0.1,0-0.2,0l-0.2,0l-0.1,0
		l0,0v0v0l-0.2,0l-0.2,0.1l0,0h0l-0.1,0l-0.2,0H10L9.9,14h0l-0.1,0l0,0.1v0.1l0,0.1l0.1,0.1h0l0,0l0,0l0.1,0.1
		c0.1,0.1,0.1,0.1,0.1,0.1l0,0.1l0.1,0.1c0,0,0,0,0,0L10.1,15L10,15.2l0,0.1l0.1,0.2l0,0l0,0v0l0,0.1c0,0,0,0.1-0.1,0.1
		c0,0-0.1,0-0.2,0l-0.2,0h0l0,0h0l-0.1-0.1l-0.2,0l0,0l0,0.4c0,0.1,0,0.1-0.1,0.1c0,0,0,0,0,0.1v0h0l0,0.1c0.1,0,0.1,0.1,0.1,0.1
		l0,0.2v0.1c0,0,0,0.1,0,0.1l-0.1,0.1l-0.1,0.2v0l0,0.1l0.1,0.1c0,0,0,0.1,0.1,0.1l0.1,0.1l0.1,0.1c0.1,0.1,0.1,0.1,0.1,0.1l0.1-0.1
		c0,0,0.1,0,0.1,0c0,0,0.1,0,0.1,0.1l0,0h0v0l0.1,0.1l0,0.1l0,0l0,0l0.1,0.1l0.1,0c0,0,0.1,0,0.1,0.1c0,0,0.1,0.1,0.2,0.1h0l0.2,0.1
		h0h0l0.2,0.1l0.3,0.1l0,0l0.4,0l0.2-0.1h0.1v0l0,0l0.1,0.1l0,0v0l0.1,0.1l0.1,0.1l0.1,0l0,0l0,0l0,0l0.1,0.1v0h0v0l0,0.2l0.1,0h0h0
		l0,0l0.1,0.1l0.1,0l0-0.1v0l0,0l0.1-0.1l0.1,0v0l0.1,0.1l0.1-0.1l0-0.1v0v0l0,0l0.1-0.1l0-0.2v0v0l0,0l0.1-0.2l0.1,0l0-0.2h0.1
		l0-0.1l-0.1-0.2l0,0v0l0-0.1v0l0,0l0.1-0.1l0,0h0l0.2,0h0l0.2,0l0.1,0l0.1,0.2l0,0v0.1l0,0.1c0,0,0,0.1,0.1,0.1h0
		c0.1,0,0.1,0,0.1,0.1c0,0,0,0.1,0.1,0.1l0.1,0.1l0,0v0l0,0.1l0.1,0l0.1-0.1l0.1,0.2l0.2,0.1h0l0,0l0.1,0.1l0,0l0-0.1v0v0l0.3,0l0,0
		c0,0,0,0,0-0.1c0,0,0-0.1,0-0.1c0-0.1,0-0.1,0-0.1c0,0,0,0,0.1,0l0.1,0l0-0.1l-0.2-0.1h0l0,0v0v0l0-0.3l0-0.2v0v0l0.4,0.1l0.1-0.1
		c0,0,0-0.1,0-0.1c-0.1,0-0.2-0.1-0.2-0.1c0,0,0-0.1,0-0.1l0.2-0.2l0.2,0l0.1-0.2v-0.2l0.1,0c0-0.1,0.1-0.2,0.1-0.2l0.1-0.1L16.5,16
		v0l0,0v0l-0.1-0.3v0l0-0.3l-0.1-0.1l-0.1-0.1v0v0l0,0l0-0.1l-0.2,0.1l0,0L15.8,15l-0.3-0.3h0l-0.1-0.2l-0.1-0.1l-0.1,0.1v0l0,0h0h0
		l-0.1,0l0,0h0l-0.2-0.3c-0.1,0-0.1-0.1-0.2-0.1l-0.1-0.1l0,0L14.4,14l-0.1,0.1l0,0l0,0h0l-0.1,0l-0.1,0l0,0l0,0h0l-0.1,0
		C13.9,14.1,13.7,14,13.6,13.9z"/>
	<path id="XMLID_1653_" class="st1" d="M14,17.6l-0.2-0.1l-0.2,0l-0.1,0.1l0,0.1l0,0l0.1,0.2l0,0.1v0h-0.1l0,0.2l-0.1,0.1l-0.1,0.1
		l0.1,0.1l0,0l0,0l0.3,0.2l0,0h0v0v0l0,0.2l0.1,0.2c0,0,0.1,0.1,0.1,0.1h0l0,0v0l0,0v0.2c0,0,0,0.1,0,0.3c0.1,0.1,0.1,0.2,0.1,0.2
		c0,0,0,0.1,0.1,0.2l0,0v0l0,0c0,0.1,0,0.2,0,0.3c0,0.1,0,0.1,0.1,0.3l0,0l0,0l0,0L14.2,21c0,0.1,0,0.1,0,0.1l0,0.2
		c0,0.1,0,0.1,0,0.1l0,0c0.1,0,0.1,0.1,0.1,0.1l0,0.1l0,0l0,0l0,0c0,0,0-0.1,0.1-0.1l0,0l0,0c0,0,0,0,0.1-0.1c0,0,0-0.1,0-0.1l0,0
		l0,0c0.1,0,0.2,0,0.2,0l0.1,0.1v0v0l0,0.2l0.1,0.1h0h0l0.1,0.1l0.1-0.1l0.1-0.1h0c0.1,0,0.1,0.1,0.1,0.1l0,0.2l0,0l0.2,0.4l0.1,0.1
		l0,0v0l0,0.2l0,0l0,0.2l0,0c0.1-0.1,0.1-0.1,0.1-0.1c0,0,0,0,0,0.1v0v0.1v0c0,0,0.1,0,0.1,0l0.1-0.1l0.1-0.1c0.1,0,0.1-0.1,0.2-0.1
		h0l0.2,0l0,0l0.1-0.1l0-0.2c-0.1-0.1-0.1-0.2-0.1-0.2l0-0.1v0l0,0l0,0l0.1-0.1h0l0,0l0.1-0.1l0.1-0.2l0-0.1l-0.1-0.3l0.3,0.1v-0.1
		l0,0v0l0.1-0.1l0.2-0.1h0l0.1,0.3v0l0,0.1l0,0.1c0,0,0,0.1,0.1,0.1c0,0,0.1,0,0.1-0.1l0,0l0,0h0l0.2-0.1l0,0h0c0.1,0,0.1,0,0.2,0.1
		l0,0.2v0l0,0l0.1,0l0.1,0l0.2-0.1l0.1-0.1l0-0.1l-0.1-0.1l-0.2-0.1l0,0l0,0l0,0v0l-0.2-0.2l0,0l0.1-0.1l0,0l0,0l0.1,0l0,0h0l0.1,0
		h0l0,0v-0.1l-0.1-0.1l-0.1-0.1l-0.1-0.2l0,0l0,0v0l-0.1-0.2v-0.2l0.1-0.1h0.2l0.4,0l0.2-0.3v0h0l0.2-0.1l0.1-0.2l0,0l0.2-0.2
		l0.1-0.2v0h0v0l0,0l0.1-0.1l0.1-0.1l0-0.2v0l0,0l0.1-0.1l0,0l-0.2,0l-0.3,0l0,0l-0.1-0.1h0v0l0,0l-0.1-0.1l0,0l0,0c0,0-0.1,0-0.1,0
		l0,0c0,0,0,0,0,0c0,0,0,0,0-0.1c0,0,0-0.1-0.1-0.1l0,0v0h0l0-0.1h0l-0.1,0.1l0,0h0l-0.3,0.1h0l0,0l-0.2-0.1l0,0l0,0v0h0l0-0.1
		l-0.1,0.1c-0.1,0.1-0.2,0.1-0.2,0.1l-0.2-0.1l-0.1,0l0,0l-0.1-0.1l0,0l0,0l0.1-0.2v-0.1l-0.1,0h0L17.3,18l0-0.1l-0.4,0l-0.1-0.1
		c0,0-0.1-0.1-0.1-0.1l0-0.1l0-0.1l-0.1,0l-0.1,0.1l-0.1,0.2l0,0.1l0,0.2v0h0l0,0v0c0,0-0.1,0.1-0.1,0.1h-0.1L16,18l-0.1,0l0,0l0,0
		l0,0.1l0,0v0h0l-0.2-0.1c0,0.1,0,0.1,0,0.2c0,0.1,0,0.1,0,0.1l0,0.1c0,0-0.1,0-0.2,0h-0.1l0,0.2l-0.2-0.1h0l0,0l-0.1-0.2l-0.2-0.1
		l0-0.1l-0.1,0.1h0l-0.1,0h0l-0.1-0.1l-0.1-0.1l0,0c-0.1-0.1-0.1-0.1-0.1-0.2c0,0,0,0-0.1,0l0,0c-0.1,0-0.1-0.1-0.1-0.1l0-0.1v-0.1
		l-0.1-0.1L14,17.6L14,17.6L14,17.6L14,17.6z"/>
	<path id="XMLID_1651_" class="st3" d="M3.9,15.1L3.9,15.1c0,0.1-0.1,0.1-0.1,0.2c0,0-0.1,0.1-0.1,0.1v0c0,0,0,0.1-0.1,0.2l0,0
		c0,0,0,0-0.1,0l-0.4-0.1v0l0,0.1v0l0,0l0,0C3,15.9,2.9,16,2.9,16.1c0,0,0,0.2,0.1,0.4l0.1,0.2c0,0.1,0,0.2-0.1,0.3L2.9,17H2.7
		l0-0.2l-0.1,0.3l0.1,0.1c0,0,0,0,0,0l0,0c0,0-0.1,0.1-0.1,0.2c0,0.1,0,0.2,0.1,0.3h0.2c0.1,0,0.1,0.1,0.3,0.3l0,0l0,0
		c0,0.1,0,0.1,0.1,0.1l0.4,0.4v0l0.2,0.2h0.1l0.1-0.2l0,0l0,0l0.3,0.1v0v0l0,0.2l0.3,0.4l0.1,0l0,0l0.1,0l0,0L5,19.8l0.2,0h0h0l0,0
		l0,0l0.2,0.4l0.2,0.1l0.2,0l0.1,0.2H6l0,0l0,0l0.3,0.1v0l0,0l0,0L6.5,21l0.3-0.1h0l0.1,0h0l0.2,0.2l0.3,0l0.2,0l0,0
		c0.3,0,0.4,0,0.5,0c0,0.1,0,0.1-0.1,0.2l-0.1,0.1c0,0,0,0.1,0.1,0.2l0,0h0l0.1,0l0,0c0.2-0.4,0.3-0.5,0.4-0.6
		c0.1,0,0.3,0.1,0.7,0.3l0.4,0.1l0,0v0l0,0.2l0.2,0l0,0.3c0.1,0.1,0.1,0.2,0.1,0.2c0,0,0.3,0,0.7,0l0.2-0.1l0.2-0.3l0.3,0l0.1,0
		l0.5-0.3h0l0,0l0,0c0.3,0,0.4,0,0.5,0l0.3,0.3l0.1,0l0,0l0.1,0.1l0,0v0v0v0v0l0.1-0.2c0-0.1,0-0.1,0-0.2c0,0,0.1-0.1,0.1-0.1
		c0.1,0,0.2,0.1,0.3,0.3l0,0h0l0.2-0.1c0,0,0.1,0,0.1-0.1l0-0.1v0c0-0.1,0-0.1,0.1-0.1l0.1-0.1l0.2-0.2l0.1-0.2
		c-0.1-0.2-0.1-0.3-0.1-0.3l0-0.2c0-0.1-0.1-0.1-0.1-0.2c0,0,0-0.1-0.1-0.2h0v0l0-0.3c0,0,0-0.1,0-0.2c-0.1-0.1-0.1-0.1-0.1-0.2
		L13.8,19l0,0v0v0l0-0.2l-0.1-0.1v0l-0.2-0.2v0l0,0.2v0v0l-0.1,0.1l0,0.1v0L13,19.1l-0.1-0.2l-0.1,0L12.8,19l-0.1,0.1l-0.2,0.1
		l-0.1-0.1l-0.1,0l0-0.2l-0.1-0.1l-0.1,0l0,0L12,18.6l0,0L12,18.4l-0.1-0.1h-0.1l-0.1,0.1l0,0l-0.4,0l-0.3-0.1c0,0-0.1,0-0.2-0.1
		l-0.2-0.1c-0.2,0-0.3-0.1-0.3-0.1l0,0l-0.1,0L10,17.9l0,0c0,0,0-0.1-0.1-0.1l0-0.1l-0.1-0.1l-0.1,0l0,0l0,0l0,0c0,0-0.1,0-0.1,0.1
		c-0.1,0-0.1,0-0.2-0.1l-0.1-0.1c-0.1-0.1-0.1-0.1-0.1-0.2l0-0.1C9.1,17.2,9,17.2,9,17.1C9,17,9,17,9,16.9v0l0,0l0.1-0.2l0.1-0.2
		l0-0.1l0-0.2L9,16.2L9,16c0-0.1,0-0.2,0.1-0.2c0,0,0,0,0-0.1v0l0-0.1v0l0,0v-0.2h0l0,0l0,0l0,0l0,0v0h0L9,15.4l0,0h0l-0.1-0.1
		l-0.4-0.1l0,0l-0.1-0.1H8.2c0,0-0.1,0-0.1,0.1h0l-0.2,0.1H7.5c-0.1,0-0.1,0-0.1,0.1c0,0-0.1,0.1-0.2,0.1l-0.2,0v0h0l-0.3,0l0,0l0,0
		l0,0l-0.1,0l-0.2,0.1l-0.3,0h0l0,0l-0.2-0.1H5.7c-0.1,0-0.1-0.1-0.2-0.1l0,0c0-0.1,0-0.1,0-0.1l0,0l-0.1,0l-0.1,0.1l0,0L5,15.3h0h0
		l-0.3,0c0,0-0.1,0-0.2-0.1l-0.3,0h0l0,0l-0.1-0.1H3.9z"/>
	<path id="XMLID_1649_" class="st0" d="M13.3,24.4L13.3,24.4c0,0.1,0.1,0.1,0.1,0l0,0h0l0.3,0l0.2-0.1l0.1,0.1l0,0l-0.1,0.1l0.1,0.1
		v0v0L13.9,25l0.2,0.1l0.4,0l-0.1,0.1c-0.2,0.3-0.3,0.4-0.3,0.5l0.1,0c0.2,0,0.3,0.1,0.3,0.1c0,0.1,0.1,0.2,0.1,0.3l0.2,0.1l0.1,0
		l0.3-0.2l0.1,0.2v0l0,0l0,0l0,0.2l0.1,0l0,0l0.2,0.1l0,0v0l0-0.2l0,0l-0.1-0.4v0l0.1-0.3l0,0h0l0.2,0l0.3-0.2l0,0
		c0.1,0.1,0.2,0.2,0.3,0.2c0,0,0.1-0.1,0.2-0.2l0,0l0,0l0.4,0.1l0.2-0.1l0,0l0,0h0l0,0l0.2,0L18,25l0.2,0l0,0l0,0l0,0l0,0l0,0.1l0,0
		h0v0h0l0.1-0.1l0.1-0.1l0-0.2l0,0l-0.1,0.1l0,0c0,0-0.1,0-0.1,0H18c-0.1,0-0.1,0-0.1-0.1l0-0.2c-0.1,0-0.1,0-0.1,0l0,0l-0.1,0
		l-0.1,0h0l0,0l-0.1-0.1l0-0.1l0,0l0.1-0.3l0,0h0v0l0.1-0.1l-0.2-0.2l0,0l0,0v-0.2l0,0l0.1-0.3l-0.1-0.2l-0.1,0l-0.1,0l-0.1,0.1
		l-0.1-0.1L17,22.8L17,22.6l0,0l0,0l0-0.1v0l0,0l0,0l0.1-0.1l0,0l0,0h0l0.1,0l0.1,0l0.4,0h0l0.1,0l0,0l0.1,0l0.1,0l0.1-0.1l0-0.1
		l0,0l0-0.2l-0.1,0l-0.2,0.1c0,0.1-0.1,0.1-0.1,0.1c-0.1,0-0.1,0-0.1-0.1l0,0h0v0l0-0.1v0l0-0.1l-0.1-0.2l-0.2,0l-0.1,0.1l0,0.2
		l-0.2-0.1l0.1,0.1l0,0v0l0,0.1v0h0l-0.1,0.2l0,0l-0.2,0.1l0,0.1c0,0,0,0.1,0.1,0.2l0,0v0l0,0.2v0l0,0L16.6,23l0,0l0,0h0l-0.1,0h0h0
		h0h0l-0.2,0c0,0-0.1,0-0.1,0l-0.1,0.1L16,23.2c0,0.1-0.1,0.1-0.2,0.1c-0.1,0-0.1-0.1-0.1-0.1v-0.1l0-0.1l0,0c0,0,0,0-0.1,0
		c0,0-0.1,0-0.1-0.1v0l0-0.2l0-0.2l-0.1-0.1l0,0l0,0l-0.2-0.4l0,0l0-0.1v0h0v0l0-0.2l0,0l0,0C15.1,22,15.1,22,15.1,22
		c0,0-0.1,0-0.1-0.1l-0.1-0.1l0,0l0,0v0l0,0l0-0.1l0,0l0-0.1l-0.1-0.1h-0.1c0,0.1,0,0.1,0,0.1c0,0,0,0.1-0.1,0.1
		c0,0.1,0,0.1-0.1,0.1c0,0-0.1,0-0.1,0l0,0c0,0-0.1-0.1,0-0.2v0l-0.1-0.1c0,0-0.1-0.1-0.1-0.1l0-0.3l0-0.1L14,21.2L14,21.2l0,0.1
		c0,0.1,0,0.1,0,0.2c0,0.1,0,0.1-0.1,0.2l-0.1,0.1l0,0l0,0.1v0.2c0,0.1,0,0.1,0,0.1c0,0,0.1,0,0.1,0l0,0l0.1,0.3v0l0,0v0
		c-0.1,0.6-0.1,0.9-0.2,1c0,0-0.1,0-0.1,0.1c-0.1,0-0.1,0-0.1,0c-0.2,0.4-0.3,0.6-0.4,0.6h0c0,0,0,0.1,0,0.3l0,0L13.3,24.4
		L13.3,24.4L13.3,24.4z"/>
	<path id="XMLID_1647_" class="st0" d="M19.9,21L19.9,21l-0.1,0l0,0.1c0,0.1-0.1,0.1-0.1,0.1c0,0-0.1,0-0.1,0l0,0l0,0l0,0l0-0.1v0
		l0-0.1l0,0l0,0l0,0.1v0.1l0,0l0,0l-0.1,0.1l0,0h0l-0.2,0h0v0l0,0v0L19,21.4l0,0.1h0L19,21.5h-0.2v0l0,0l0,0l0,0.1l0,0h-0.1l0,0
		l-0.1-0.1l0,0v0h0v0l-0.1,0l-0.1,0l-0.1,0l0.1,0.2l0.2,0.1l0,0l0,0l0,0l0.1,0.1l0,0.1l0,0v0h0l-0.1,0.1v0h0l-0.2,0.1h0l-0.1,0l0,0
		h0l0,0h0l-0.1,0l0,0l0,0.1h0v0l-0.1,0.1h0l0,0l-0.1,0.1h0l-0.2-0.1l-0.3,0l-0.1,0l0,0h-0.1L17,22.5l0,0.1l0.1,0.2l0.1,0h0v0l0,0
		l0.1-0.1l0,0l0,0h0l0.1,0h0v0l0.1,0l0.1,0.3h0v0l0,0.1l0,0l0,0.1v0l-0.1,0.1v0.2l0.1,0.1h0l0.1,0.1l0,0l0,0L17.7,24l0,0.1l0,0h0
		l0.1,0l0.1-0.1h0l0.1,0h0l0,0l0.2,0.1h0.2l0.1-0.1l0,0l0,0l0.1-0.1l0.1-0.1l0,0l0,0l0.1,0l0.1-0.1l0.1-0.1l0.2,0.1l0,0v0l0,0
		c0,0.1,0,0.1,0.1,0.1l0.1,0h0l0.1,0h0v0l0.1,0h0l0,0l0,0v0l0,0l0,0v0l0,0l0,0l0.1-0.1h0l0,0h0l0.1,0c0,0,0-0.1,0.1-0.1
		c0.1,0,0.1-0.1,0.1-0.1l0,0h0v0l0,0v0h0l0,0h0l0.1,0h0.1l0,0l0,0l0,0l0-0.1l0,0c0-0.1-0.1-0.1-0.1-0.2l0,0l0,0h0v0l0-0.2
		c0-0.1,0-0.1,0.1-0.1l0-0.1c0,0,0,0-0.1,0l-0.2,0.1l0-0.2c0,0,0.1-0.1,0.2-0.2l-0.1-0.3c0-0.1,0-0.2,0.1-0.2l0,0h-0.1l0,0l0,0.1
		c0,0-0.1,0.1-0.1,0.1h0l-0.1-0.1h0h0v0v0l0-0.1l0-0.1v0l0,0l0,0H20l0,0l0-0.1v-0.1l-0.1-0.1L19.9,21L19.9,21z"/>
	<path id="XMLID_1645_" class="st1" d="M21.4,23L21.4,23L21.4,23l-0.1,0.2c0,0-0.1,0.1-0.1,0.1h0l-0.1,0l-0.1,0l-0.1,0.1
		c0,0-0.1,0-0.1-0.1l0,0.1h0l0,0l0,0l0,0l-0.1,0.1h-0.1l-0.1,0l-0.1,0.1h0l0,0c0,0-0.1,0.1,0,0.1l0.1,0.1l-0.2,0l-0.1,0.1l0,0v0
		l0,0.1l0,0l0,0h-0.1l-0.1-0.1l0,0l-0.1,0c0,0-0.1-0.1-0.1-0.1l-0.1,0l-0.1,0.1l0,0h0L19,23.8h0v0h0l-0.1,0L18.8,24l0,0L18.7,24
		l-0.1,0.1h-0.3l0,0L18,24l-0.1,0l-0.1,0.1h0l0,0l-0.1,0c0,0-0.1,0-0.1,0l0,0v0.1l0,0.1l0.2-0.1c0,0,0.1,0,0.2,0.1l0,0l0,0l0,0.3
		l0,0h0.2l0.1,0l0,0c0.1,0,0.1-0.1,0.2-0.1l0,0l0,0l0,0.1v0l0,0.2v0l-0.1,0.1h0v0l-0.2,0.1l-0.1,0.1l0,0l0.3,0l0,0l0,0l0,0l0.1,0.1
		l0.3,0v0l0,0.1v0h0l-0.1,0.1c0,0.2,0,0.3,0.1,0.3l0.2,0.1l0.2,0.1l0.2-0.1l0,0l0,0l0,0l0.2,0.2l0,0l0.1-0.1l0,0l0,0h0h0l0.1,0
		l0-0.2l0.2,0.3l0.1,0l0,0h0v0v0.1l0.1,0l0.2-0.3l0.1,0.2v-0.1l0,0v0v0L21,26l0.1-0.1h0.2l0-0.2h0l0,0l0.1,0l0-0.1l-0.1-0.1v0l0-0.1
		v0l0,0h0v0l0.4-0.2l0-0.2l0,0v0l0.1-0.1l0,0l0,0l0.1-0.3l0,0l0,0l0.1-0.1l0.1-0.1v0l0,0l0.1-0.1l0-0.1v0h0V24h-0.1L22.1,24
		c-0.1,0-0.1,0-0.2,0c0,0,0-0.1,0-0.2l-0.1,0l0,0c-0.1,0.1-0.1,0.1-0.1,0.1c0,0,0,0,0,0c0,0,0-0.1,0-0.1c0-0.1,0-0.1,0-0.1
		c0,0,0,0,0,0l0.1-0.3l0-0.1l0-0.1l-0.1-0.1c0,0,0-0.1,0-0.1v0c0,0,0-0.1,0-0.1h0l0,0c0,0.1-0.1,0.1-0.2,0.1
		C21.5,22.9,21.4,22.9,21.4,23L21.4,23z"/>
	<path id="XMLID_1643_" class="st4" d="M20.9,19.5l-0.1-0.1l-0.1-0.1l-0.1,0h0v0h0l-0.1,0l0,0h0l0,0l-0.1,0h0l0,0l-0.1,0v0h0v0l0,0
		l-0.1-0.1L20.2,19l-0.1,0L20,19l-0.1,0.1l0,0.2v0l0,0l-0.1,0.2v0h0l-0.1,0.1l-0.1,0.2l0,0l0,0c-0.1,0.1-0.1,0.1-0.2,0.1L19.3,20
		c0,0-0.1,0.1-0.2,0.1l-0.1,0.1l0,0L19,20.5h0v0h0l-0.6,0l-0.1,0.1v0.1l0.1,0.2l0.1,0.2l0.1,0.1v0h0l0,0c0.1,0.1,0.1,0.1,0.1,0.2
		v0.1l0,0l0,0h0l0-0.1h0l0.1,0l0,0h0.1l0,0l0,0l0,0l0.1-0.1c0,0,0.1-0.1,0.1,0l0.1,0l0.1-0.1V21l0-0.1v0l0,0l0,0l0.1,0v0h0l0,0
		l0.1,0v0l0,0.1v0l0,0.1l0,0l0-0.1v0l0.1-0.1l0,0l0.1,0h0l0,0l0.1,0h0l0,0l0.1,0.1v0.1l0.1,0.1l0,0v0v0.1l0,0h0l0,0l0,0l0.1,0.1h0h0
		v0v0l0,0.1l0,0l0,0l0-0.1v0l0,0h0h0l0.1,0h0v0h0.1l0,0v0l0-0.4l-0.1-0.2L20,20.5l0,0l0-0.2l-0.1-0.2v0l0,0l0,0l0,0l0-0.2h0h0l0.5,0
		l0.3-0.1l0,0l0,0c0.1,0,0.1-0.1,0.2-0.1C20.9,19.6,20.9,19.6,20.9,19.5z"/>
	<path id="XMLID_1641_" class="st2" d="M19.3,14.9L19.3,14.9l-0.1,0.4l0.1,0.1l0.1,0.1l0,0h0l0,0l0.2,0.1l0.2,0.1h0l0.1,0.1h0l0,0v0
		L20,16l0,0l0,0l-0.1,0.1c0,0,0,0.1,0,0.1h0v0.1l0,0l0,0l-0.1,0.2l0,0h0l0,0l-0.1,0l-0.1,0l-0.1,0l-0.1,0.1l0,0l0.2,0.1l0,0
		c0,0,0,0.1-0.1,0.1l-0.1,0l-0.2-0.1l0,0l0,0l-0.2-0.1h-0.1l-0.2,0.3l0,0.1v0.2l0.1,0.1v0l0,0l0,0l0,0.1v0l0,0.2v0l0,0l-0.1,0h-0.2
		l-0.1,0.1l0,0.1l0,0l0,0.2h0v0.1l0.1,0.1l0.2,0.1l0.2-0.1l0.1-0.1l0,0H19l0.1,0.1c0,0,0.1,0.1,0.1,0.1l0.1,0h0h0l0,0l0.1-0.1
		l0.1,0.2l0.1,0.1h0.1l0.1,0h0l0.3,0h0v0l0.1,0.1l0,0l0,0v0l0.1,0.1v0l0.1,0.1l0.1,0l0.1,0v-0.2l-0.1-0.1h0v0l0-0.2l0.1-0.1l0,0h0
		l0.1,0h0.1l0,0l-0.1-0.1l-0.2-0.1l-0.1-0.1l0,0l0,0l0,0l0.1-0.1l0,0l0.1,0l0.4,0l0,0h0l0.1,0l0.1-0.1l0-0.2l-0.1-0.1
		C21,17.6,21,17.5,21,17.2l-0.1-0.1l0,0h0v0v0l0-0.2l0.2-0.8c-0.1-0.2-0.1-0.4-0.1-0.4l0-0.2l0-0.2v0l0,0l0,0l0.1-0.1V15
		c0,0,0-0.1-0.1-0.1l-0.1-0.1h0v0l0-0.2v0l0,0l0,0v0l0.2-0.2v-0.1L21,14v0l0,0l0.1-0.1v0h0l0.1-0.1l0-0.1h-0.1l-0.1,0l0,0.2l0,0
		l-0.2-0.1l-0.1,0l0,0.2L20.5,14l-0.2,0.1l-0.1,0.1l0,0v0h0l-0.1,0.1l0,0.2v0L20,14.8h0l0,0.1v0l0,0l0,0L19.9,15h0v0l0,0h0l-0.2,0
		l0,0v0l0,0l0,0L19.4,15l0,0L19.3,14.9z"/>
	<path id="XMLID_1639_" class="st1" d="M22.8,12.9L22.8,12.9l0-0.2l-0.1-0.1l-0.1,0.1v0l0,0l0,0l-0.1,0.1l0,0l0,0h0L22.3,13h0
		l-0.2,0l-0.1,0l0,0.1l0,0l0,0l-0.1,0.1l0,0h0l-0.1,0l0,0v0.1l0,0l-0.1,0.1l0,0v0h0l-0.1,0.1h0l0,0l-0.1,0l-0.1,0.1l0,0.1v0l0,0
		L21.1,14L21.1,14l0,0.1v0v0v0.1l0,0v0L21,14.4v0l-0.1,0.1l0,0.1l0.1,0.1v0l0,0c0,0.1,0.1,0.1,0.1,0.2v0.2h0l0,0L21,15.3l0,0.2
		l0,0.2c0,0.1,0,0.2,0.1,0.4v0v0l-0.2,0.8l0,0.1l0.1,0.1l0.2-0.2l0,0h0l0.6-0.2l0.1-0.1l0,0l0,0h0l0.3,0c0,0,0.1,0,0.3-0.1v-0.2l0,0
		h0l0.1-0.1l0-0.1v0v0v0l0,0c0,0,0-0.1,0-0.1c0,0,0-0.1,0-0.2l0-0.1l0,0l0-0.1l-0.1-0.1c-0.1,0-0.1-0.1,0-0.1c0,0,0-0.1,0.1-0.1
		l0-0.1l0,0l0,0l0.1-0.2l0-0.1l0.1-0.2l-0.1-0.1l-0.2-0.1h0v0l0,0l0-0.1v0v0l0-0.2l0,0v0l0.1-0.1c0-0.1,0-0.1,0-0.1c0,0,0,0,0.1,0
		l0.1,0l0-0.1l0-0.2l0-0.1l-0.1,0h0l0,0l-0.1-0.1l0,0v0l0,0l0-0.2v0v0L22.8,12.9z"/>
	<path id="XMLID_1637_" class="st5" d="M23.2,20.9L23.2,20.9L23.2,20.9L23.2,20.9l-0.1-0.1l0,0v0l0-0.2c0,0,0,0-0.1-0.1h0l-0.1,0.1
		h0l0,0l-0.2,0.1l0-0.1v0l0-0.1l0-0.1l0,0l0,0.1h0v0l-0.2,0.2l0,0h0h0h0l-0.1,0l0,0l-0.1-0.1l-0.1,0l0,0l0,0L22,20.4l-0.2-0.1l0,0h0
		l-0.2-0.1v0l-0.1-0.1l-0.2,0l-0.1,0l0.1,0.3h0l-0.2,0H21h0l0,0l-0.1-0.1l-0.1,0.1l-0.1,0.2l-0.1,0.3l0,0.4l0.1,0.2c0,0,0,0,0,0l0,0
		c0,0-0.1,0.1,0,0.1l0.1,0.3l0,0c-0.1,0.1-0.2,0.1-0.2,0.2l0,0.1l0.1-0.1l0,0h0c0.1,0,0.1,0,0.1,0.1l0,0.2l0,0l0,0c0,0,0,0,0,0.1
		l0,0.2c0,0.1,0,0.1,0.1,0.1l0.2,0.2l0.1-0.1l0.1,0h0l0,0l0.1,0c0,0,0,0,0.1,0l0.1-0.1l0-0.1c0,0,0,0,0.1-0.1h0.2c0,0,0.1,0,0.1,0
		c0-0.1,0-0.1,0.1-0.1c0,0,0.1,0,0.1,0c0.1,0,0.1,0.1,0.1,0.1l0,0.1l0,0c0,0,0.1,0.1,0.1,0.1l0,0.1c0,0.1,0,0.1-0.1,0.1v0l-0.1,0.2
		l0,0l0.2,0l0,0l0,0c0,0.1,0,0.1,0,0.2C22,24,22,24,22,24l0.1,0l0.1,0h0.1l0.1-0.1v-0.1c0,0,0-0.1,0-0.1c0,0,0.1,0,0.2,0l0.2,0.1
		c0.1,0,0.1,0.1,0.1,0.1v0c0,0,0-0.1,0-0.2l-0.1-0.1v0h0l0,0c0.1-0.1,0.2-0.2,0.3-0.1l0.3,0.1l0.1-0.1h0v0v0l0,0l0,0l0,0
		c0.1-0.1,0.1-0.3,0.1-0.3c0-0.1-0.1-0.1-0.1-0.1h0l0-0.1h0c0.1,0,0.1,0,0.1-0.1l0,0l-0.1-0.1l0,0v0l-0.1-0.2c0-0.1,0-0.2,0-0.3V22
		l-0.1,0.1l-0.1,0.1l0-0.3l0,0v0h0c0.2-0.2,0.3-0.4,0.3-0.4l-0.1-0.2c0-0.1,0-0.2,0-0.2L23.2,20.9L23.2,20.9z"/>
	<path id="XMLID_1635_" class="st2" d="M20.6,18.1L20.6,18.1L20.6,18.1l0.2,0.2l0,0v0h0l0.1,0.1l0,0l-0.1,0.1l0,0l0,0h-0.1l-0.1,0
		l-0.1,0.1l0,0.1v0l0,0.1l0.1,0.1v0v0.2l0.1,0l0.1,0h0l0,0l0,0l0,0l0.1,0.1v0l0,0l0.1,0.1v0l0,0v0.1c0,0.1,0,0.1,0,0.1
		c0,0.1-0.1,0.1-0.2,0.1L20.5,20h0L20,20l0,0.1l0.1,0.1v0v0l0,0.2l0.3,0.3h0l0,0v0l0.1,0.2l0,0v0l0.1-0.2l0,0l0,0l0,0l0.1-0.2l0,0
		l0.2-0.1h0l0.1,0.1l0.2,0l-0.1-0.3l0,0l0.1,0l0.1,0h0v0l0.3,0.1l0.3,0.1h0l0,0h0l0.1,0.1l0.1,0v0l0,0l0,0l0,0l0.1,0.1l0,0l0.1-0.1
		v0l0.1-0.1l0.1-0.1l0.1,0.1v0v0l0,0.1v0l0,0.1l0,0l0.1,0l0.1-0.1h0.1v0h0l0.1,0c0,0,0.1,0.1,0,0.1l0,0.2l0,0.1l0,0
		c0.2-0.2,0.3-0.3,0.4-0.3h0.2l0-0.1l0.2-0.1h0l0.2,0l0.2-0.1v0h0.1l0-0.1l0,0l0,0l-0.3-0.6v0l0,0l0.1-0.2l0,0l-0.2,0h0l0,0v0
		L24,19.1l0,0l0,0l0,0L23.9,19c-0.1,0.1-0.1,0.1-0.2,0.1c-0.1,0-0.1,0-0.2-0.2l-0.1-0.1c0,0-0.1,0-0.1,0c-0.1,0-0.2,0.1-0.2,0
		c0,0-0.1-0.1,0-0.2c0-0.1,0-0.1,0-0.1l-1-0.1c-0.1,0-0.2-0.1-0.2-0.1l-0.1,0c-0.1,0-0.2-0.1-0.3-0.3l-0.1,0.1l-0.1,0l-0.4,0l0,0
		l0,0L20.6,18.1z"/>
	<path id="XMLID_1633_" class="st0" d="M25.5,24.6c0.1,0,0.1,0,0.1-0.1v0l0,0h0l0.1,0v-0.1c0,0-0.1,0-0.1,0l-0.2-0.2v0l-0.1-0.3
		l-0.1-0.1c-0.2,0-0.3,0-0.4,0l0,0l0,0.1v0v0h0L24.6,24l0,0c-0.1-0.1-0.2-0.1-0.2-0.1C24.2,24,24,24,24,24c0,0-0.1,0-0.1,0.1l0,0
		l0,0c-0.1-0.1-0.1-0.1-0.1-0.2c0,0,0.1-0.1,0.1-0.2c0.1-0.1,0.2-0.2,0.2-0.2l0,0c0,0-0.1,0-0.2,0.1c-0.1,0.1-0.1,0.1-0.1,0.1
		c0,0,0,0,0-0.1l0,0l-0.1-0.1l-0.1,0.1l0,0l0,0h0c-0.1-0.1-0.2-0.1-0.3-0.1c-0.1,0-0.1,0-0.2,0.1l0.1,0.1c0,0.1,0.1,0.2,0,0.2
		c0,0,0,0-0.1,0c0,0-0.1,0-0.2-0.1c-0.1,0-0.1-0.1-0.2-0.1l-0.1,0v0l0,0l0,0v0.2L22.3,24v0.1l0.1,0.1l0,0l-0.1,0.1l-0.1,0.1v0
		l-0.1,0.1L22,25l0,0.2l0,0l-0.4,0.2l0,0l0.1,0.1v0v0l0,0.2l-0.2,0l0,0.2h-0.2l0,0.1l0,0L21,26.2l0,0.5l0,0.1l0,0v0.1l0.1,0.1l0,0
		v0.1l0.2,0l0,0v0h0v0l0.1-0.1l-0.1-0.1l0,0l-0.1-0.1l0,0l0,0v-0.1h0.1l0-0.1l-0.1-0.1h0.3l0.5-0.2l0.1-0.1l0,0l0.1,0h0l0,0l0,0.1
		l0.1,0l0-0.1h0.2l0.2,0l0.1-0.1l0,0v0l0,0l0.2-0.1l0-0.3l0.2,0.2l0.1,0l0,0l0-0.6v0v0l0.1,0h0l0,0l0,0l0.2,0.4l0.3,0l0,0l0-0.1
		l-0.1-0.1l0,0l0.2-0.1l0,0l0,0l0.1,0.1l0.1,0v-0.1l0,0h0.1c0.1,0,0.2,0.1,0.2,0.1l0,0l0.1-0.2c0,0,0.1-0.1,0.2,0l0,0v0l0,0
		c0,0,0,0,0,0c0,0,0.2-0.1,0.4-0.3C25.3,24.7,25.4,24.7,25.5,24.6z"/>
	<path id="XMLID_1631_" class="st2" d="M25.5,20.3L25.5,20.3l-0.2-0.1l-0.1,0c-0.1,0.1-0.1,0.2-0.2,0.3c0,0-0.1,0-0.1,0
		c0,0,0-0.1,0-0.2l-0.2,0.2l0,0h0h-0.2l-0.2,0.1v0l-0.2,0l-0.1,0.1l-0.1,0.1l0,0h-0.2c0,0-0.1,0.1-0.3,0.2c0.1,0,0.1,0.1,0.1,0.1
		l0,0v0l0.1,0.4l0,0l0,0v0h0l0,0h0l-0.3,0.4l0,0.1c0,0,0.1,0,0.1,0c0,0,0.1,0.1,0,0.2c0,0.1,0,0.3,0.1,0.4l0.1,0.1
		c0,0,0.1,0.1,0,0.1l-0.1,0.1l0.1,0.1c0,0.1,0,0.2-0.1,0.4l0.1,0.2l0,0l0.1,0c0.1-0.1,0.2-0.1,0.2-0.1c0,0,0.1,0.1,0.1,0.1
		c0,0.1-0.1,0.1-0.2,0.3l-0.1,0.1l0.1,0.1c0.1-0.1,0.1-0.1,0.2-0.1c0,0,0.2,0,0.4-0.2c0.1,0,0.2,0,0.3,0.1l0,0l0-0.1l0,0
		c0,0,0,0,0-0.1l0-0.1c0,0,0-0.1,0-0.1c0,0,0.1,0,0.1-0.1l0.1-0.1l0-0.1v0h0v0c0,0,0-0.1,0-0.1c0-0.1,0-0.1,0.1-0.1l0.1-0.1l0,0l0,0
		l0.1,0v-0.1c0,0,0-0.1,0.1-0.2l0,0l0,0l-0.1-0.1c0-0.1,0-0.1,0-0.2v0l0.2-0.2l0-0.1c0,0-0.1-0.1,0-0.2c0-0.2,0.1-0.3,0.3-0.3l0,0h0
		l0.1,0.1h0.1l0.1-0.1l0,0l0,0l0,0l0.1-0.1l0-0.1v0l0,0l0,0l0,0l0,0L26,20.9c-0.1-0.1-0.1-0.2-0.2-0.3c0-0.1,0-0.1,0-0.2l-0.1-0.1
		L25.5,20.3z"/>
	<path id="XMLID_1629_" class="st0" d="M26.1,21.3L26.1,21.3L26,21.4l-0.1,0.1h0v0h-0.2l0,0l-0.1-0.1c-0.1,0-0.2,0.1-0.2,0.2l0,0.1
		l0.1-0.1L25.4,22v0v0l-0.2,0.2c0,0-0.1,0.1,0,0.1l0,0.1c0.1,0,0.1,0.1,0.1,0.1c0,0,0,0,0,0.1l-0.2,0.1c0,0,0,0.1,0,0.2v0l0,0
		l-0.1,0c0,0,0,0.1-0.1,0.1l-0.1,0.1v0c0,0,0,0.1,0,0.1c0,0.1,0,0.1,0,0.1l-0.1,0.1l0,0l0,0v0l0.1,0.2h0c0.1,0,0.3,0,0.4,0h0v0
		l0.2,0.2v0h0l0.1,0.3l0.2,0.2l0.1,0l0-0.2l0.2,0.2l0,0l0.1-0.3l0-0.2l0,0h0l0.1,0l0-0.1v0v0h0l0.2,0c0.1-0.1,0.1-0.2,0.1-0.2l0-0.3
		l0.2,0.1l0-0.1l-0.1-0.1l0,0l0.1-0.1l0,0h0L27,23v0L27,22.8l0,0l0,0l0-0.1l-0.1-0.1l0,0l0,0l0.2-0.1l0-0.1
		c-0.2-0.1-0.3-0.2-0.2-0.2c0,0,0,0,0.1,0l0.2,0l0-0.1v0l0.1-0.1l0-0.1c0,0-0.1,0-0.1-0.1l0,0v0l0,0l0,0l0,0l0,0
		c0,0-0.1,0.1-0.1,0.1c-0.1,0-0.1,0-0.2-0.1v0h0l-0.1-0.1l0,0c0,0,0,0.1-0.1,0.1c-0.1,0-0.2,0.1-0.3,0c-0.1,0-0.1-0.1-0.1-0.1l0-0.1
		c0-0.1-0.1-0.2-0.1-0.2c0,0-0.1,0-0.1,0V21.3L26.1,21.3z"/>
	<path id="XMLID_1627_" class="st0" d="M27.3,19.1c-0.1,0-0.1,0.1-0.2,0.1c0,0-0.1,0-0.2-0.1l-0.2,0c-0.1,0-0.1,0.1-0.2,0.2l0.1,0.2
		l-0.2,0.1h0l-0.1,0c0.1,0.1,0.1,0.2,0.1,0.2l0,0.1c0,0.1-0.1,0.1-0.1,0.2l-0.3,0.2l0.1,0l0,0c-0.1,0.1-0.1,0.1,0,0.2l0.2,0.3h0v0
		l0.1,0.1v0l0,0l0,0v0v0l0,0c0,0,0.1,0,0.1,0c0.1,0,0.1,0.1,0.1,0.3l0,0.1c0,0,0,0.1,0.1,0.1c0.1,0,0.1,0,0.2,0c0,0,0.1,0,0.1-0.1
		l0,0v0l0.1-0.1l0,0l0.1,0.2c0,0,0.1,0,0.1,0l0,0l0,0l0-0.1l0.1,0.1h0h0l0,0l0.1,0.1l0-0.1l0-0.3l0,0l0,0l0.1-0.1c0,0,0,0,0-0.1l0,0
		l0,0l0,0l0,0l0.2-0.3l0,0l0,0l0,0v0l0,0.1h0l0.2-0.2l0-0.1h0l-0.1,0l0.1-0.3l-0.1,0l0,0h0v0l0,0c0,0,0-0.1,0-0.1l0.2,0h0.1
		c0,0,0-0.1-0.1-0.2l-0.2-0.1l0.2-0.2v0l-0.1,0h0v0l0,0l0,0c0-0.1-0.1-0.1-0.1-0.2l-0.3,0l-0.1,0.1v0l0,0l-0.5-0.1l0.5-0.1
		c0,0,0.1-0.1,0.2-0.2l-0.2-0.1L27.3,19.1z"/>
	<path id="XMLID_1625_" class="st0" d="M25.5,17.8L25.5,17.8L25.5,17.8c-0.1-0.3-0.2-0.4-0.2-0.5L25,17.3c-0.1,0-0.3-0.1-0.3-0.1
		c-0.1,0-0.2-0.1-0.3-0.3h0l0,0c0,0.1,0.1,0.2,0.2,0.3l0,0l0,0l-0.1,0.2c0,0.1-0.1,0.1-0.1,0.1c0,0-0.1-0.1-0.2-0.2l-0.1,0
		c0,0,0,0.1,0.1,0.2v0v0v0v0l0,0.1L24,17.7l0,0l0,0c0,0,0,0.1,0,0.1c0,0.1,0,0.2,0,0.2c0,0,0,0,0,0h0l0,0l-0.1,0c0,0,0,0.1,0.1,0.1
		c0.1,0.1,0.1,0.2,0.2,0.3l0,0l0,0l0.1,0c0.1,0,0.2,0,0.2,0.1l0.1,0.1l0,0v0h0l0,0.2c0,0,0,0.1,0,0.1c0,0,0,0.1-0.1,0.1
		c-0.1,0-0.1,0-0.1,0.1l0,0l0,0v0l-0.1,0.1l0.1,0.1l0.2,0h0l0,0l0.1,0.1l-0.1,0.2l0.3,0.6l0,0l0,0.1l0,0h0l0.5-0.3l-0.1,0.1
		C25,20.2,25,20.3,25,20.3c0.1,0,0.2-0.1,0.2-0.2l0,0h0l0.1-0.1l0,0l0.2,0.2l0.2,0l0,0l0.1,0.1l0.3-0.2c0,0,0-0.1,0.1-0.1l0-0.1
		c0,0,0-0.1-0.1-0.2l-0.1-0.1l0.3,0.1l0.1-0.1l-0.1-0.2l0,0l0.2-0.2L26.5,19c-0.1-0.1-0.1-0.1-0.1-0.1l0,0L26.3,19l0,0h0l-0.1,0
		l0-0.1c-0.1,0-0.1,0-0.1-0.1l-0.1-0.1c-0.1,0-0.1-0.1-0.1-0.1c0,0,0-0.1,0-0.2c0.1-0.1,0.1-0.2,0.1-0.3V18l0.1,0l0.2,0
		c0,0,0-0.1,0.1-0.2l-0.1,0c-0.1,0.1-0.2,0.1-0.3,0.2C25.8,18,25.7,17.9,25.5,17.8L25.5,17.8L25.5,17.8z"/>
	<path id="XMLID_1623_" class="st5" d="M24.7,12.8L24.7,12.8c-0.1,0-0.1,0-0.1,0.1l0,0l0,0l0,0L24.5,13l0,0l-0.1,0l0,0.1
		c0,0.1,0,0.1-0.1,0.2l0,0.1c0,0,0,0.1,0,0.2l0,0.2c0,0,0.1,0.1,0.1,0.1l0.2,0c0,0,0.1,0,0.2-0.1l0-0.1v0v0l0-0.1v0l0.1-0.1H25l0,0
		c0,0-0.1-0.1-0.1-0.2l-0.1-0.1c0-0.1-0.1-0.1-0.1-0.2C24.7,12.9,24.7,12.8,24.7,12.8z"/>
	<path id="XMLID_1621_" class="st1" d="M24,12.5L24,12.5L24,12.5h-0.1l0,0v0h0l-0.2,0.1l0,0c0,0.1,0,0.1,0.1,0.2l0,0l0,0
		c0,0.1-0.1,0.1-0.2,0.2c0,0,0,0,0,0.1l0.1,0.1l0.1,0l0.1,0c0.1,0,0.1,0,0.2,0l0.1,0.1c0.1,0,0.1,0,0.1,0c0,0,0.1,0,0.1-0.1l0.1-0.1
		l0-0.1l0-0.2l0.1,0l0.1,0l0,0l0,0l-0.1-0.2l0-0.1c0,0,0.1-0.1,0.1-0.1h0l0-0.1l-0.2,0v0l-0.2-0.1c-0.1,0-0.1-0.1-0.2,0l0,0
		c0,0,0,0.1,0,0.1C24,12.4,24,12.5,24,12.5z"/>
	<path id="XMLID_1619_" class="st2" d="M26.8,10.6l-0.1,0.1c0,0,0,0.1,0,0.1v0h-0.2h0l0,0l-0.1,0L26.3,11l0,0l-0.1,0.1l-0.1,0.1l0,0
		l0,0l0,0l-0.2,0.2v0h0l-0.1,0.1l-0.1-0.1v0l0,0l0,0l-0.1-0.1l-0.1,0l0.1,0.3l0,0.2l-0.1,0.1l-0.2,0.2v0.1l0,0h0l0,0.1l0,0.1h0.1
		l0.2,0.1h0h0v0h0l0,0l0.1,0l0,0h0v0c0,0,0,0.1,0,0.1l0,0.1l0.2,0.1l0.1,0l0.1-0.1l0.2-0.3h0v0l0.1-0.1l0,0l0.1-0.1l0.1,0
		c0-0.1,0.1-0.1,0.1-0.1c0,0,0.1,0,0.1,0l0,0v0l0.1,0.2v0h0v0l0,0.1l0,0.2l0,0l0,0.1l0,0v0h0l-0.1,0.1l0,0.1l0,0.2h0l0.1,0l0.1-0.1
		l0,0l0,0l0.1,0.1v0v0.1h0l-0.1,0l0,0v0.1l0,0l0,0l0,0.1h0l0,0l-0.1,0l-0.1,0l0,0.1l0,0l0.2,0l0,0l0.1-0.2l0,0l0.6-0.6h0l0.1-0.1
		l0,0v0h0.1l0.1,0l0.1,0l0.1-0.1l0.1-0.3l0,0v0l0.5-0.5v0l0-0.3c0,0-0.1,0-0.1,0l0,0v0l-0.1,0c0,0-0.1,0-0.1-0.1l0,0v0l0,0v-0.4
		c0,0-0.1,0-0.1-0.1l-0.1-0.1l-0.1-0.1c0,0,0-0.1,0-0.1l0,0L28,10.2l0,0.1l-0.1,0.1h0c-0.1,0-0.1,0-0.2,0c0,0-0.1-0.1-0.1-0.1v0h0
		l-0.1,0l-0.1-0.1l0,0l0,0l0,0.1l0,0l-0.1,0.2h0v0h0l-0.1,0.1l0,0h0l-0.2,0L26.8,10.6z"/>
	<path id="XMLID_1617_" class="st0" d="M27,8.3l0-0.2l-0.1,0h0l-0.2,0.1l0,0l0,0v0.1l0,0l-0.1,0.1h0v0h0l-0.1,0.1h0v0l0,0
		c-0.1,0-0.1-0.1-0.2-0.1c0,0,0,0,0,0l-0.1,0L26,8.5l0.2,0.1l0.1,0.1l0,0h0l0,0v0l0,0.1h0v0.2l0,0.1l0.1,0.2l0.1,0.1l0.1-0.1
		l0.1-0.1v0h0l0.1-0.1l0.1,0.1v0l0,0l0,0v0L27,9.6l0.1,0l0.1,0.2v0v0l0,0.2v0h0l0,0.1l0.1,0.1l0.1,0l0.1-0.1l0,0l0.1,0l0,0l0,0
		l0.1,0.1l0.1,0c0.1,0,0.1,0,0.1,0.1v0.1l0,0l0.1,0l0-0.1v0c0,0,0-0.1,0-0.1l0.1,0c0.1,0,0.1,0.1,0.1,0.1l0,0.1v0.1l0.1,0.1l0.1,0.1
		c0,0,0.1,0.1,0.1,0.1h0c0,0,0,0.1,0,0.1v0.3c0,0,0,0.1,0.1,0.1h0c0,0,0.1,0,0.1,0l0,0c0,0,0.1,0,0.1,0.1l0,0.2l0.2-0.4
		c0.1-0.2,0.1-0.3,0.2-0.3c0.1,0,0.2,0,0.3,0.1l0.5,0l0-0.1l-0.2-0.2c-0.1-0.1-0.1-0.1-0.1-0.1l0.2,0c0.2,0.1,0.3,0,0.4-0.3l0,0h0
		l0.2-0.2l0-0.3v0h0h0l0.1,0h0l0,0v0l0.3,0.3l0.1,0l0,0l-0.1-0.1l0,0l0,0L31,9.6l0-0.3l-0.1,0l0,0h0l-0.1-0.1c0,0-0.1,0-0.2-0.1
		c0,0-0.1,0-0.1-0.1v0c0,0,0,0,0,0.1c0,0-0.1,0-0.1,0h0l0,0h0l-0.1-0.1l-0.1,0.1c0,0-0.1,0.1-0.1,0.1l0,0.1c0,0,0,0,0,0.1
		c0,0-0.1,0-0.1,0.1l0,0c-0.1,0-0.1,0-0.1,0l0,0l-0.2-0.2c-0.1,0-0.1-0.1-0.2-0.1c0,0,0,0,0-0.1c0-0.1,0-0.1,0-0.1l0,0l0,0
		c0,0,0,0,0,0.1l0,0l0,0l0,0l-0.1,0.2l-0.2,0l0,0l0,0v0c0,0,0-0.1,0-0.1l0-0.1L29,8.9l0,0c0,0,0,0,0,0l-0.1,0c0,0-0.1,0-0.1,0
		c0,0,0,0,0-0.1l0,0l-0.1-0.1l-0.3,0c0,0,0,0.1,0,0.1c0,0,0,0-0.1,0c0,0-0.1,0-0.1,0v0h0c-0.1-0.1-0.1-0.1-0.1-0.2L28,8.5L28,8.6
		c-0.1,0-0.1,0-0.1,0l0,0l-0.1,0l-0.2,0.1c0,0-0.1,0-0.1,0h0c-0.1,0-0.1,0-0.1-0.1l-0.1-0.1L27,8.3z"/>
	<path id="XMLID_1615_" class="st1" d="M31.6,6.9l-0.1-0.7l0,0h0C31.6,6.1,31.6,6,31.6,6l0,0c-0.1-0.1-0.1-0.2-0.1-0.4h-0.1
		c-0.1,0-0.1,0-0.2,0.1c-0.1,0-0.1,0.1-0.1,0.1c0,0.1-0.1,0.1-0.3,0.2l0,0.2v0l0,0l-0.1,0.1l0,0h0h0l-0.7,0.1h0h0v0l-0.2-0.2
		l0.1-0.1l-0.1-0.1L29.6,6l0,0h0v0v0l0-0.2l-0.2,0l0,0l-0.2-0.1l-0.6-0.1l-0.5,0l0,0c0,0,0,0,0,0l-0.3-0.6c0-0.1-0.1-0.2-0.4-0.5
		c-0.2-0.3-0.4-0.4-0.4-0.5l-0.4-0.4l-0.1,0l-0.5,0h0l0,0c-0.1,0-0.1-0.1-0.2-0.1c-0.1,0-0.3,0-0.7,0.2l0,0l0,0.1h0v0h0v0l-0.1,0.1
		v0h0l0,0.1c0,0.1,0,0.1,0,0.2l0.1,0l0.1,0l0.1,0l0,0c0-0.1,0-0.1,0.1-0.1h0.1l0.3,0.1l0.1,0l-0.1,0.1v0.2c0,0,0.1,0.1,0.2,0.3
		C25.9,4.7,26,4.7,26,4.8l0,0l0,0l0.1-0.1l0.1-0.1v0l0,0l0.2,0l0.1-0.1l0.2-0.1l0.2,0.1v0l0,0l0.1,0.3l0.1,0.2v0l0,0.2l0.1,0.1v0
		l0,0.2v0.1c0,0.1,0.1,0.2,0.1,0.2l0,0.1l0,0v0L27.1,6v0l0,0l0,0L27,6.1l0,0.2l0,0.2l0,0l0,0l0,0l0,0l0,0.3l0,0c0,0-0.1,0-0.1,0h0
		l-0.1-0.1l-0.1,0l-0.1,0.1l-0.1,0.3v0l0,0l-0.1,0.1h0l-0.1,0l-0.1,0.2l0.1,0.1l0,0l0.1,0.2v0v0.1l0.2,0l0,0.1v0l0,0.2l0,0l0.1,0
		L27,8.1l0,0L27,8.3l0.1,0.1l0,0l0.1,0.1l0.1,0.1c0,0,0.1,0,0.1,0l0,0l0.1,0c0.1,0,0.1,0,0.2-0.1l0,0l0.1,0c0,0,0.1,0,0.1,0L28,8.4
		h0l0,0l0,0l0,0c0.1,0.1,0.1,0.1,0.1,0.2l0.1,0.1l0.1,0h0h0l0,0c0,0,0-0.1,0-0.1c0,0,0,0,0.1,0l0.3,0l0,0h0v0h0l0.1,0.2l0,0.1h0
		l0.1,0h0c0,0,0,0,0-0.1l0,0L29.2,9c0,0,0,0.1,0,0.1l0,0.1l0.1,0l0.1-0.1c0,0,0-0.1,0-0.1c0,0,0-0.1,0-0.1l0,0c0,0,0,0,0,0l0.1,0
		c0,0,0.1,0.1,0.1,0.2v0l0,0c0,0,0.1,0.1,0.1,0.1h0l0,0l0.2,0.2l0,0l0.1,0l0,0c0,0,0-0.1,0-0.1c0-0.1,0-0.1,0.1-0.2L30.2,9l0.1,0.1
		h0l0-0.2v0l0,0l0.1,0c0,0,0,0,0,0.1c0,0,0,0.1,0,0.1l0,0c0.1,0,0.1,0.1,0.2,0.1h0l0,0l0.1,0.1l0.1,0l-0.1-0.5
		c-0.1,0-0.1-0.1-0.2-0.2c-0.1-0.1,0-0.2,0.1-0.4C30.8,8,30.9,7.9,31,7.9l0,0l0,0h0.1l0,0l0.1,0h0.2c0.1,0,0.1-0.1,0.2-0.3
		C31.7,7.5,31.7,7.3,31.6,6.9z"/>
	<path id="XMLID_1613_" class="st2" d="M27.3,14.4L27.3,14.4C27.3,14.4,27.3,14.4,27.3,14.4l-0.4,0c-0.2,0-0.3-0.1-0.4-0.1l-0.4,0.4
		l0,0.2v0l0,0c-0.3,0-0.5,0-0.5-0.1l0-0.5l-0.4,0L25,14.6l0-0.1c0-0.1,0-0.2-0.1-0.2l-0.2,0.1l-0.1,0.1l0,0h0l-0.1,0.1
		c-0.2,0.1-0.3,0.3-0.4,0.4l-0.4,0.5l0.1,0.2v0l0,0l0,0c0,0,0,0.1,0,0.2c0.1,0.1,0.1,0.2,0.1,0.3v0l-0.3,0.2v0.1l0.1,0.1
		c0,0,0,0,0,0v0c0,0,0.1,0.1,0.2,0.1l0.3,0.1l0.1-0.1l0.1-0.1l0.1-0.2l0.2,0.1l0,0v0l0,0v0c0,0.1,0,0.1,0.1,0.2l0.2,0
		c0.1,0,0.1,0,0.2-0.1c0,0,0.1,0,0.1,0c0.1,0,0.2,0,0.2,0.1l0.1-0.1l0,0h0c0,0,0.1-0.1,0.1-0.1c0-0.1,0.1-0.1,0.1-0.1l0.1-0.1l0,0
		l0,0h0l0.1,0l0,0l0,0l0.1-0.4v0l0.1,0c0.1-0.1,0.2-0.1,0.2-0.2l0-0.1c0-0.1,0-0.1,0-0.1c0,0,0,0,0.1,0c0.1,0,0.1,0,0.2,0l0-0.1v0
		l0,0l0.1-0.1l0-0.1h-0.1l0,0l0,0v0l0,0h0h0c0.1,0,0.1,0,0.2-0.1l0.5-0.3h0l0.1,0.1l0.1,0l0-0.2v0l0,0l0,0l0.1-0.1l0,0l-0.1,0v0h0
		l-0.1,0L27.3,14.4L27.3,14.4L27.3,14.4L27.3,14.4L27.3,14.4L27.3,14.4z"/>
	<path id="XMLID_1611_" class="st1" d="M28,18.8L28,18.8L28,18.8L28,18.8L28,18.8l-0.1-0.2c-0.1-0.1-0.2-0.1-0.2-0.1l-0.1,0v0.2
		c0,0.1,0,0.1-0.1,0.2l0,0l0.1,0.1h0l0,0.1l0.1,0c0.1,0,0.1-0.1,0.1,0l0.2,0l0-0.1C27.9,18.9,27.9,18.9,28,18.8z"/>
	<path id="XMLID_1609_" class="st0" d="M26.9,17.2c-0.1-0.1-0.1-0.2-0.2-0.4c-0.2,0-0.3,0-0.4-0.1c0-0.1-0.1-0.1-0.3-0.1l0,0l0-0.1
		l0,0l0,0c-0.1,0-0.1,0.1-0.2,0.1c0,0.1-0.1,0.1-0.1,0.1c0,0.1-0.1,0.2-0.1,0.2c0,0,0,0-0.1,0l-0.1-0.1c0,0-0.1,0-0.1,0l-0.1,0
		c-0.1,0.1-0.1,0.1-0.2,0.1l-0.3,0c-0.1,0-0.1-0.1-0.1-0.2l-0.1,0l-0.1,0.1l0,0v0l0,0l0,0l0.1,0h0l0,0v0c0.1,0.2,0.2,0.3,0.3,0.3
		c0,0,0.1,0,0.3,0.1l0.3,0.1c0.1,0,0.2,0.2,0.3,0.5c0.1,0.1,0.2,0.1,0.2,0.1c0.1,0,0.1-0.1,0.3-0.2l0,0l0,0l0,0l0.1,0h0v0l0,0
		c0,0.2-0.1,0.3-0.1,0.3l-0.2,0v0c0,0.1-0.1,0.2-0.1,0.3c0,0,0,0.1,0,0.1l0.2,0.1c0,0.1,0.1,0.1,0.1,0.1h0l0,0.1l0.1,0l0,0
		c0,0,0.1,0,0.1,0c0.1,0,0.1,0,0.2,0.1l0,0l0.1,0.1l0,0c0,0,0.1,0,0.2,0l0.2,0l0.2-0.1l0.1,0l0.1,0l0-0.1c0,0,0-0.1,0-0.1
		c0,0,0.1-0.1,0.1-0.1v-0.1c0,0,0-0.1,0-0.1c0,0,0.1,0,0.1-0.1c0.1,0,0.2,0,0.4,0.1l-0.1-0.1l-0.1-0.1l0-0.1l-0.1,0h0v0l0,0l0,0
		L27.3,18l-0.2,0v0l0-0.2C27,17.4,26.9,17.2,26.9,17.2z"/>
	<path id="XMLID_1607_" class="st0" d="M25.6,12.6L25.6,12.6L25.6,12.6L25.6,12.6l-0.1-0.1l-0.2-0.1h-0.1l0,0l-0.1-0.2l0,0l0.1-0.1
		v-0.1l0,0l0-0.1l0,0l-0.1,0l0,0l-0.2,0h0l-0.1-0.1v0l0-0.1l0,0l0.1-0.2v-0.1l0,0l-0.1,0.1l0,0l0,0l0,0l0,0l-0.1-0.1l0,0v0l0-0.2
		l-0.1-0.1l-0.1,0l-0.1,0.1l0,0l0,0l-0.2,0l0,0.2v0.2l0,0l-0.1,0.1v0l0,0h0l-0.1,0l-0.1,0.1l0,0l0,0h0l0,0l-0.2-0.1l0,0.1v0L23.3,12
		c0,0,0,0-0.1,0.1l-0.1,0L23,12l0,0l0,0v0l0-0.2l0-0.1l0,0l-0.1,0.1l0,0l0,0l-0.1,0.1L22.7,12v0l0,0v0h0l-0.1,0.1c0,0,0,0.1-0.1,0.1
		l0,0.2l0.2,0.2l0,0l0.1,0.2v0l0,0h0L22.8,13l0,0l-0.1,0l0,0.1l0.1,0.1l0.2,0l0,0.1l0,0l0,0v0v0l0,0.3l0,0v0l-0.1,0.1v0h0l-0.2,0
		v0.1l-0.1,0.2l0,0.2l0,0.1l0.2,0.1l0,0l0.1,0.2v0l0,0l0,0L22.9,15l0,0.1l0,0l-0.1,0.2l0,0.1l0,0v0c0,0-0.1,0.1-0.1,0.1c0,0,0,0,0,0
		l0,0l0.1,0.1l0,0l0,0l0,0.1l0,0l0,0l0,0v0v0l0,0v0l0,0l0,0l0,0l0.1,0l0.3,0.1c0.1,0,0.2,0,0.3-0.1c0.1,0,0.2,0,0.3,0l0-0.1
		l-0.1-0.2l0,0h0l0.4-0.6l0.5-0.4h0l0.1-0.1l0.1-0.1v0c0.1,0,0.1-0.1,0.2-0.1l0,0l-0.1-0.1v0h0L24.7,14l0,0v0l0,0l-0.1,0l-0.2-0.1
		c-0.1,0-0.1-0.1-0.1-0.1c0-0.1-0.1-0.3-0.1-0.4c0,0-0.1,0-0.1,0l-0.2,0l-0.1-0.1l-0.1,0h-0.1c0,0-0.1,0-0.1,0c0,0-0.1-0.1-0.1-0.1
		c0-0.1,0-0.1,0.1-0.1c0.1,0,0.1-0.1,0.2-0.2c-0.1-0.1-0.1-0.1-0.1-0.2l0,0c0,0,0.1-0.1,0.2-0.1c0,0,0-0.1,0-0.1l0.1,0l0,0
		c-0.1,0-0.1-0.1-0.1-0.2l0.1,0c0.1,0,0.1,0,0.2,0l0.2,0.1h0.2l0.1,0l0,0.1c0,0,0,0.1-0.1,0.1c0,0-0.1,0-0.1,0.1l0.1,0.2
		c0-0.1,0.1-0.1,0.1-0.1c0,0,0.1,0,0.1,0c0,0,0,0.1,0.1,0.2c0,0.1,0,0.1,0.1,0.2l0.1,0.1c0.1,0.1,0.1,0.2,0.2,0.3l0.3,0l0.1-0.1
		l0.1-0.1l0.1-0.1v0v0l0-0.1v0l0,0h0l0.1-0.1l0,0l0,0l-0.2-0.1h0v0L25.6,12.6L25.6,12.6z"/>
	<path id="XMLID_1605_" class="st5" d="M21.8,16.8L21.8,16.8L21.2,17l-0.2,0.2c0,0.3,0,0.4,0.1,0.4l0.2,0.1h0v0l0,0.3
		c0.1,0.2,0.2,0.3,0.3,0.3l0.2,0l0,0v0c0,0,0.1,0.1,0.2,0.1l0.4,0c0.3,0,0.5,0,0.6,0.1c0,0,0,0.1,0,0.2c0,0.1,0,0.1,0,0.1l0.2,0
		c0.1,0,0.2,0,0.2,0l0.1,0.1c0.1,0.1,0.1,0.2,0.2,0.1c0,0,0.1-0.1,0.1-0.1l0,0L24,19l0.1-0.1c0-0.1,0.1-0.2,0.2-0.2l0,0l0,0l0,0l0,0
		l0-0.2c-0.1-0.1-0.1-0.1-0.2-0.1c-0.1,0-0.1,0-0.2,0c0,0,0,0,0-0.1c-0.1-0.1-0.1-0.2-0.2-0.2c-0.1-0.1-0.1-0.1-0.1-0.2l0,0l0.2,0
		l0-0.1c0-0.1,0-0.1,0-0.2c0,0,0.1,0,0.1-0.1l0.1,0v0C24,17.4,24,17.3,24,17.2l0,0c0,0,0.1,0,0.2,0l0,0l0,0v0
		c0.1,0.1,0.1,0.2,0.1,0.2l0.1-0.2c-0.1-0.2-0.2-0.3-0.2-0.3l-0.1,0.1l0,0l-0.3-0.1h0v0c-0.1-0.1-0.2-0.1-0.2-0.2l-0.2-0.1v-0.2
		l0.3-0.2c0-0.1,0-0.2-0.1-0.3l-0.1-0.1l-0.2,0c-0.1,0-0.2,0.1-0.3,0.1l-0.2-0.1v-0.1l0,0l-0.1,0l0,0l0,0v0l0,0l0,0l0,0v0v0l0,0
		l0,0.2l0,0.1c0,0,0,0.1,0,0.1c0,0.1,0,0.1,0,0.2l0,0.1l0,0l0,0l-0.1,0.1v0.2l0,0c-0.2,0.1-0.3,0.1-0.3,0.1l-0.3,0L21.8,16.8
		L21.8,16.8z"/>
	<path id="XMLID_1603_" class="st5" d="M28.3,23c-0.2,0.2-0.4,0.4-0.5,0.7c-0.1,0.2-0.2,0.3-0.2,0.4l0.1,0.4v0l0,0l0,0.3
		c0,0.1,0,0.1,0,0.2l0.3,0.2l0,0h0l0,0l0,0c0,0.1,0.1,0.1,0.1,0.2c0,0,0.1,0.1,0.1,0.1l0-0.5v0l0.2-0.5l0.1-0.6v0l0,0l0.1-0.2
		l-0.1-0.1v0h0l0-0.2l0,0l0,0l0,0l0-0.1L28.3,23z"/>
	<path id="XMLID_1601_" class="st5" d="M20.9,27.4L20.9,27.4L20.9,27.4L20.9,27.4l-0.3,0.1l0,0l0.1,0.1c0,0,0,0,0,0l-0.1,0.1
		l-0.2,0.2c-0.1,0.1-0.1,0.3,0.1,0.5l0.2,0h0v0l0.2,0.1l0.2,0c0.1,0,0.2-0.1,0.4-0.3h0l0,0l0.1,0l0-0.3v0l0.1-0.2v0h0l0.1-0.1
		c0-0.1,0-0.2,0-0.2c0-0.1-0.1-0.1-0.1-0.1l0,0.1l-0.2,0l-0.1,0.1h0l0,0H20.9z"/>
</g>
<path id="XMLID_1596_" class="st6" d="M24.1,19.5c0-0.9,0.7-1.7,1.7-1.7c0.9,0,1.7,0.8,1.7,1.7c0,0.9-0.7,1.7-1.7,1.7
	C24.8,21.2,24.1,20.4,24.1,19.5L24.1,19.5z M25.7,18.1c-0.8,0-1.4,0.6-1.4,1.4c0,0.8,0.6,1.4,1.4,1.4c0.8,0,1.4-0.6,1.4-1.4
	C27.1,18.7,26.5,18.1,25.7,18.1L25.7,18.1z M25.7,18.1"/>
<path id="XMLID_1593_" class="st6" d="M24.8,19.5c0-0.5,0.4-0.9,0.9-0.9c0.5,0,0.9,0.4,0.9,0.9c0,0.5-0.4,0.9-0.9,0.9
	C25.2,20.4,24.8,20,24.8,19.5L24.8,19.5z M24.8,19.5"/>
</svg>
