<?xml version="1.0" encoding="utf-8"?>
<!-- Generator: Adobe Illustrator 19.0.0, SVG Export Plug-In . SVG Version: 6.00 Build 0)  -->
<svg version="1.1" id="图层_1" xmlns="http://www.w3.org/2000/svg" xmlns:xlink="http://www.w3.org/1999/xlink" x="0px" y="0px"
	 viewBox="0 0 33 33" style="enable-background:new 0 0 33 33;" xml:space="preserve">
<style type="text/css">
	.st0{fill:#989898;}
	.st1{fill:#5ABAE0;}
</style>
<g id="XMLID_1948_">
	<path id="XMLID_1952_" class="st0" d="M19.6,5.3c5.8,1.1,10.1,6.2,10.1,12.2c0,6.8-5.5,12.4-12.4,12.4c-6,0-11.1-4.3-12.2-10.1
		h13.1h1.4v-1.4L19.6,5.3 M18.2,3.8v14.6H3.5C4,25.6,10,31.2,17.3,31.2c7.6,0,13.8-6.2,13.8-13.8C31,10.2,25.3,4.2,18.2,3.8
		L18.2,3.8L18.2,3.8z M18.2,3.8"/>
	<path id="XMLID_1949_" class="st1" d="M16.7,1.8C8.6,1.8,2,8.3,2,16.4h14.7V1.8L16.7,1.8z M16.7,1.8"/>
</g>
</svg>
