<?xml version="1.0" encoding="utf-8"?>
<!-- Generator: Adobe Illustrator 19.0.0, SVG Export Plug-In . SVG Version: 6.00 Build 0)  -->
<svg version="1.1" id="图层_1" xmlns="http://www.w3.org/2000/svg" xmlns:xlink="http://www.w3.org/1999/xlink" x="0px" y="0px"
	 viewBox="0 0 33 33" style="enable-background:new 0 0 33 33;" xml:space="preserve">
<style type="text/css">
	.st0{fill:#6698FF;}
	.st1{fill:#66CB33;}
	.st2{fill:#FFCB33;}
	.st3{fill:#FF6666;}
	.st4{fill:#9898CB;}
	.st5{fill:#5ABAE0;}
	.st6{fill:#CB99FF;}
	.st7{fill:#349898;}
	.st8{fill:#66CBFF;}
</style>
<g id="XMLID_1812_">
	<path id="XMLID_1859_" class="st0" d="M22.8,21.9c0,0.7,0.3,1.5,0.8,2c0.5,0.5,1.3,0.8,2,0.8c0.7,0,1.5-0.3,2-0.8
		c0.5-0.5,0.8-1.3,0.8-2c0-0.7-0.3-1.5-0.8-2c-0.5-0.5-1.3-0.8-2-0.8c-0.7,0-1.5,0.3-2,0.8C23.1,20.4,22.8,21.1,22.8,21.9L22.8,21.9
		z M22.8,21.9"/>
	<path id="XMLID_1856_" class="st1" d="M18.9,11.7c1.4,0,2.5-1.1,2.5-2.5c0-1.4-1.1-2.5-2.5-2.5c-1.4,0-2.5,1.1-2.5,2.5
		C16.4,10.6,17.5,11.7,18.9,11.7L18.9,11.7z M18.9,11.7"/>
	<path id="XMLID_1853_" class="st2" d="M26.6,10.7c1.4,0,2.5-1.1,2.5-2.5c0-1.4-1.1-2.5-2.5-2.5c-1.4,0-2.5,1.1-2.5,2.5
		S25.2,10.7,26.6,10.7L26.6,10.7L26.6,10.7z M26.6,10.7"/>
	<path id="XMLID_1850_" class="st2" d="M21.4,21c0.6,0,1.1-0.5,1.1-1.1c0-0.6-0.5-1.1-1.1-1.1c-0.6,0-1.1,0.5-1.1,1.1
		C20.2,20.5,20.7,21,21.4,21L21.4,21L21.4,21z M21.4,21"/>
	<path id="XMLID_1847_" class="st3" d="M28.7,17.2c1.4,0,2.5-1.1,2.5-2.5c0-1.4-1.1-2.5-2.5-2.5c-1.4,0-2.5,1.1-2.5,2.5
		C26.2,16.1,27.3,17.2,28.7,17.2L28.7,17.2z M28.7,17.2"/>
	<path id="XMLID_1846_" class="st4" d="M5,24.7c0,1.2,1,2.2,2.2,2.2c1.2,0,2.2-1,2.2-2.2c0-1.2-1-2.2-2.2-2.2C6,22.5,5,23.5,5,24.7"
		/>
	<path id="XMLID_1843_" class="st5" d="M14,20.3c1.7,0,3.1-1.4,3.1-3.1c0-1.7-1.4-3.1-3.1-3.1c-1.7,0-3.1,1.4-3.1,3.1
		C10.9,18.9,12.3,20.3,14,20.3L14,20.3z M14,20.3"/>
	<path id="XMLID_1840_" class="st6" d="M12.8,26.2c0,1.2,1,2.2,2.2,2.2c1.2,0,2.2-1,2.2-2.2c0-1.2-1-2.2-2.2-2.2
		C13.8,24.1,12.8,25,12.8,26.2L12.8,26.2L12.8,26.2z M12.8,26.2"/>
	<path id="XMLID_1837_" class="st7" d="M17.2,23.3c1,0,1.8-0.8,1.8-1.8c0-1-0.8-1.8-1.8-1.8c-1,0-1.8,0.8-1.8,1.8
		C15.4,22.5,16.2,23.3,17.2,23.3L17.2,23.3z M17.2,23.3"/>
	<path id="XMLID_1834_" class="st3" d="M9.4,9.7c0.7,0,1.2-0.6,1.2-1.2c0-0.7-0.6-1.2-1.2-1.2c-0.7,0-1.2,0.6-1.2,1.2
		C8.1,9.1,8.7,9.7,9.4,9.7L9.4,9.7z M9.4,9.7"/>
	<path id="XMLID_1831_" class="st8" d="M3.5,19.9c0.9,0,1.6-0.7,1.6-1.6c0-0.9-0.7-1.6-1.6-1.6c-0.9,0-1.6,0.7-1.6,1.6
		C1.9,19.2,2.6,19.9,3.5,19.9L3.5,19.9z M3.5,19.9"/>
	<path id="XMLID_1828_" class="st2" d="M7.6,19.8c0.4,0,0.7-0.3,0.7-0.7c0-0.4-0.3-0.7-0.7-0.7c-0.4,0-0.7,0.3-0.7,0.7
		C6.8,19.5,7.2,19.8,7.6,19.8L7.6,19.8L7.6,19.8z M7.6,19.8"/>
	<path id="XMLID_1825_" class="st1" d="M18.4,24.8c0.3,0,0.6-0.3,0.6-0.6c0-0.3-0.3-0.6-0.6-0.6c-0.3,0-0.6,0.3-0.6,0.6
		C17.9,24.5,18.1,24.8,18.4,24.8L18.4,24.8L18.4,24.8z M18.4,24.8"/>
	<path id="XMLID_1822_" class="st4" d="M22,15.7c0.3,0,0.6-0.3,0.6-0.6c0-0.3-0.3-0.6-0.6-0.6c-0.3,0-0.6,0.3-0.6,0.6
		C21.5,15.5,21.7,15.7,22,15.7L22,15.7L22,15.7z M22,15.7"/>
	<path id="XMLID_1819_" class="st3" d="M11.2,21.1c0.3,0,0.6-0.3,0.6-0.6c0-0.3-0.3-0.6-0.6-0.6c-0.3,0-0.6,0.3-0.6,0.6
		C10.6,20.9,10.9,21.1,11.2,21.1L11.2,21.1L11.2,21.1z M11.2,21.1"/>
	<path id="XMLID_1816_" class="st0" d="M7.6,15.7c0.3,0,0.6-0.3,0.6-0.6c0-0.3-0.3-0.6-0.6-0.6c-0.3,0-0.6,0.3-0.6,0.6
		C7,15.5,7.3,15.7,7.6,15.7L7.6,15.7L7.6,15.7z M7.6,15.7"/>
	<path id="XMLID_1813_" class="st2" d="M13.4,12.8c0.3,0,0.6-0.3,0.6-0.6c0-0.3-0.3-0.6-0.6-0.6c-0.3,0-0.6,0.3-0.6,0.6
		C12.8,12.5,13.1,12.8,13.4,12.8L13.4,12.8L13.4,12.8z M13.4,12.8"/>
</g>
</svg>
