<?xml version="1.0" encoding="utf-8"?>
<!-- Generator: Adobe Illustrator 19.0.0, SVG Export Plug-In . SVG Version: 6.00 Build 0)  -->
<svg version="1.1" id="图层_1" xmlns="http://www.w3.org/2000/svg" xmlns:xlink="http://www.w3.org/1999/xlink" x="0px" y="0px"
	 viewBox="0 0 33 33" style="enable-background:new 0 0 33 33;" xml:space="preserve">
<style type="text/css">
	.st0{fill:#FFBE58;}
	.st1{fill:#5ABAE0;}
</style>
<g id="XMLID_1917_">
	<g id="XMLID_1923_">
		<path id="XMLID_1924_" class="st0" d="M14.3,4.6c0-0.7-0.7-1.4-1.4-1.4h-2.8c-0.7,0-1.3,0.6-1.3,1.3v25.3l5.5,0V4.6L14.3,4.6z
			 M8.2,12.2c0-0.7-0.4-1.4-1.1-1.4l-2.7,0c-0.7,0-1.4,0.7-1.4,1.4v17.6h5.2V12.2L8.2,12.2z M24.1,19.1c0-0.7-0.4-1.4-1.1-1.4
			l-2.7,0c-0.7,0-1.4,0.7-1.4,1.4v10.7h5.2V19.1L24.1,19.1z M28.9,5.2l-2.7,0c-0.7,0-1.4,0.7-1.4,1.4v23.3H30V6.5
			C30,5.8,29.6,5.2,28.9,5.2L28.9,5.2z M28.9,25"/>
	</g>
	<g id="XMLID_1918_">
		<path id="XMLID_1919_" class="st1" d="M8.2,12.2c0-0.7-0.4-1.4-1.1-1.4l-2.7,0c-0.7,0-1.4,0.7-1.4,1.4v17.6h5.2V12.2L8.2,12.2z
			 M24.1,19.1c0-0.7-0.4-1.4-1.1-1.4l-2.7,0c-0.7,0-1.4,0.7-1.4,1.4v10.7h5.2V19.1L24.1,19.1z M28.9,25"/>
	</g>
</g>
</svg>
