<?xml version="1.0" encoding="utf-8"?>
<!-- Generator: Adobe Illustrator 19.0.0, SVG Export Plug-In . SVG Version: 6.00 Build 0)  -->
<svg version="1.1" id="图层_1" xmlns="http://www.w3.org/2000/svg" xmlns:xlink="http://www.w3.org/1999/xlink" x="0px" y="0px"
	 viewBox="0 0 33 33" style="enable-background:new 0 0 33 33;" xml:space="preserve">
<style type="text/css">
	.st0{fill:#5ABAE0;}
	.st1{fill:#FFBE58;}
</style>
<g id="XMLID_1901_">
	<g id="XMLID_1909_">
		<path id="XMLID_1910_" class="st0" d="M15.1,4.6c0-0.7-0.7-1.4-1.4-1.4h-2.8c-0.7,0-1.3,0.6-1.3,1.3v25.4l5.5,0V4.6L15.1,4.6z
			 M7.2,12.2c0-0.7-0.4-1.4-1.1-1.4l-2.7,0c-0.7,0-1.4,0.7-1.4,1.4v17.7h5.2V12.2L7.2,12.2z M23.1,19.1c0-0.7-0.4-1.4-1.1-1.4
			l-2.7,0c-0.7,0-1.4,0.7-1.4,1.4v10.7h5.2V19.1L23.1,19.1z M30,5.2l-2.7,0c-0.7,0-1.4,0.7-1.4,1.4v23.3H31V6.5
			C31,5.8,30.7,5.2,30,5.2L30,5.2z M30,25"/>
	</g>
	<g id="XMLID_1902_">
		<path id="XMLID_1903_" class="st1" d="M15.1,4.6c0-0.7-0.7-1.4-1.4-1.4h-2.8c-0.7,0-1.3,0.6-1.3,1.3V16l5.5,0V4.6L15.1,4.6z
			 M7.2,12.2c0-0.7-0.4-1.4-1.1-1.4l-2.7,0c-0.7,0-1.4,0.7-1.4,1.4v9.7h5.2V12.2L7.2,12.2z M23.1,19.1c0-0.7-0.4-1.4-1.1-1.4l-2.7,0
			c-0.7,0-1.4,0.7-1.4,1.4v4.8h5.2V19.1L23.1,19.1z M30,5.2l-2.7,0c-0.7,0-1.4,0.7-1.4,1.4v11.4H31V6.5C31,5.8,30.7,5.2,30,5.2
			L30,5.2z M30,19.1"/>
	</g>
</g>
</svg>
