<?xml version="1.0" encoding="utf-8"?>
<!-- Generator: Adobe Illustrator 19.0.0, SVG Export Plug-In . SVG Version: 6.00 Build 0)  -->
<svg version="1.1" id="图层_1" xmlns="http://www.w3.org/2000/svg" xmlns:xlink="http://www.w3.org/1999/xlink" x="0px" y="0px"
	 viewBox="0 0 33 33" style="enable-background:new 0 0 33 33;" xml:space="preserve">
<style type="text/css">
	.st0{fill:#5ABAE0;}
</style>
<g id="XMLID_1931_">
	<path id="XMLID_1932_" class="st0" d="M15.1,4.6c0-0.7-0.7-1.4-1.4-1.4H11c-0.7,0-1.3,0.6-1.3,1.3v25.3l5.5,0V4.6L15.1,4.6z
		 M7.2,12.2c0-0.7-0.4-1.4-1.1-1.4l-2.7,0c-0.7,0-1.4,0.7-1.4,1.4v17.6h5.2V12.2L7.2,12.2z M23.1,19.1c0-0.7-0.4-1.4-1.1-1.4l-2.7,0
		c-0.7,0-1.4,0.7-1.4,1.4v10.7h5.2V19.1L23.1,19.1z M29.9,5.2l-2.7,0c-0.7,0-1.4,0.7-1.4,1.4v23.3H31V6.5C31,5.8,30.6,5.2,29.9,5.2
		L29.9,5.2z M29.9,25"/>
</g>
</svg>
