<?xml version="1.0" encoding="utf-8"?>
<!-- Generator: Adobe Illustrator 19.0.0, SVG Export Plug-In . SVG Version: 6.00 Build 0)  -->
<svg version="1.1" id="图层_1" xmlns="http://www.w3.org/2000/svg" xmlns:xlink="http://www.w3.org/1999/xlink" x="0px" y="0px"
	 viewBox="0 0 33 33" style="enable-background:new 0 0 33 33;" xml:space="preserve">
<style type="text/css">
	.st0{fill:#5ABAE0;}
	.st1{fill:#FFBE58;}
</style>
<g id="XMLID_1862_">
	<g id="XMLID_1870_">
		<path id="XMLID_1871_" class="st0" d="M29.7,15.7c0.7,0,1.3-0.6,1.3-1.3v-2.7c0-0.7-0.5-1.2-1.2-1.2h-28l0,5.2H29.7L29.7,15.7z
			 M22.5,8.7c0.7,0,1.3-0.4,1.3-1l0-2.6c0-0.7-0.7-1.3-1.3-1.3H1.9v4.9H22.5L22.5,8.7z M15.9,22.5c0.7,0,1.3-0.4,1.3-1l0-2.6
			c0-0.7-0.7-1.3-1.3-1.3h-14v4.9H15.9L15.9,22.5z M29.2,28.4l0-2.6c0-0.7-0.7-1.3-1.3-1.3h-26v4.9h26
			C28.5,29.4,29.2,29.1,29.2,28.4L29.2,28.4z M6.5,30.4"/>
	</g>
	<g id="XMLID_1863_">
		<path id="XMLID_1864_" class="st1" d="M29.9,15.7c0.7,0,1.3-0.6,1.3-1.3v-2.7c0-0.7-0.5-1.2-1.2-1.2H17.1l0,5.2H29.9L29.9,15.7z
			 M22.6,8.7c0.7,0,1.3-0.4,1.3-1l0-2.6c0-0.7-0.7-1.3-1.3-1.3H11.4v4.9H22.6L22.6,8.7z M16,22.5c0.7,0,1.3-0.4,1.3-1l0-2.6
			c0-0.7-0.7-1.3-1.3-1.3H7.7v4.9H16L16,22.5z M29.3,28.4l0-2.6c0-0.7-0.7-1.3-1.3-1.3H13.3v4.9H28C28.6,29.4,29.3,29.1,29.3,28.4
			L29.3,28.4z M16.1,30.4"/>
	</g>
</g>
</svg>
