<?xml version="1.0" encoding="utf-8"?>
<!-- Generator: Adobe Illustrator 22.0.1, SVG Export Plug-In . SVG Version: 6.00 Build 0)  -->
<svg version="1.1" id="图层_1" xmlns="http://www.w3.org/2000/svg" xmlns:xlink="http://www.w3.org/1999/xlink" x="0px" y="0px"
	 viewBox="0 0 841.9 187.5" style="enable-background:new 0 0 841.9 187.5;" xml:space="preserve">
<style type="text/css">
	.st0{fill:#78AF2B;}
	.st1{fill:#2B9DB9;}
</style>
<path class="st0" d="M100.4,53.1C89.2,41.8,75.1,36.2,58.1,36.2c-7.2,0-14,1.4-20.4,4.2c-6.4,2.7-12.1,6.8-17.3,12.1V38.6H0v148.9
	h20.2v-50c5.5,5.5,11.4,9.7,18,12.4c6.5,2.8,13.6,4.1,21.2,4.1c8.6,0,16.3-1.4,23-4.2c6.7-2.8,12.9-7.2,18.6-13.1
	c5.2-5.5,9.2-11.8,12.1-18.9c2.8-7.1,4.2-14.6,4.2-22.4C117.1,78.4,111.6,64.3,100.4,53.1z M84.7,123.1
	c-7.6,7.5-16.7,11.3-27.2,11.3c-10.4,0-19.3-3.9-26.8-11.8c-7.5-7.8-11.2-17.3-11.2-28.4c0-10.3,3.8-19.4,11.4-27.1
	s16.4-11.6,26.3-11.6c10.8,0,20,3.8,27.5,11.5s11.2,17.3,11.2,28.6C96.1,106.4,92.3,115.5,84.7,123.1z"/>
<path class="st0" d="M236.9,38.6v13.6c-5.3-5.5-11.2-9.6-17.7-12.4c-6.5-2.7-13.6-4.1-21.3-4.1c-8.6,0-16.2,1.4-23,4.2
	c-6.7,2.8-12.9,7.2-18.6,13.1c-5.2,5.4-9.2,11.6-12,18.7s-4.2,14.6-4.2,22.5c0,17,5.6,31.1,16.8,42.4s25.2,16.9,42.1,16.9
	c7.2,0,14-1.4,20.4-4.1c6.4-2.8,12.2-6.9,17.3-12.3v13.8h20.5V38.6H236.9z M226.5,122.7c-7.6,7.7-16.4,11.6-26.3,11.6
	c-10.9,0-20.1-3.8-27.7-11.5c-7.5-7.7-11.3-17.3-11.3-28.6c0-10.8,3.8-20,11.3-27.5c7.6-7.5,16.6-11.2,27.3-11.2
	c10.4,0,19.3,3.9,26.8,11.8c7.6,7.9,11.3,17.3,11.3,28.4C237.9,106,234.1,115,226.5,122.7z"/>
<polygon class="st0" points="298.2,151.1 298.2,57 282.2,57 282.2,38.6 298.2,38.6 298.2,0 318.3,0 318.3,38.6 338.7,38.6 338.7,57 
	318.3,57 318.3,151.1 "/>
<path class="st1" d="M476.1,151.1h-20.3V38.6h19.4v12.8c4.2-5,8.9-8.7,14-11.1c5.1-2.4,10.9-3.6,17.4-3.6c14.7,0,26,4.3,33.9,13
	s11.8,21.1,11.8,37.2V151H532V91.3c0-11.9-2.2-20.8-6.7-26.5c-4.4-5.7-11.3-8.6-20.5-8.6c-10.1,0-17.4,3.4-21.9,10.2
	c-4.5,6.8-6.8,18-6.8,33.6L476.1,151.1L476.1,151.1z"/>
<path class="st1" d="M673,38.6v13.6c-5.3-5.5-11.2-9.6-17.7-12.4c-6.5-2.7-13.6-4.1-21.3-4.1c-8.6,0-16.2,1.4-22.9,4.2
	s-12.9,7.2-18.6,13.1c-5.2,5.4-9.2,11.6-12,18.7s-4.2,14.6-4.2,22.5c0,17,5.6,31.1,16.8,42.4s25.2,16.9,42.1,16.9
	c7.2,0,14-1.4,20.4-4.1c6.4-2.8,12.2-6.9,17.3-12.3v13.8h20.4V38.6H673z M662.6,122.7c-7.6,7.7-16.4,11.6-26.4,11.6
	c-10.9,0-20.1-3.8-27.6-11.5c-7.6-7.7-11.3-17.3-11.3-28.6c0-10.8,3.7-20,11.3-27.5c7.5-7.5,16.6-11.2,27.2-11.2
	c10.3,0,19.3,3.9,26.8,11.8s11.3,17.3,11.3,28.4C674,106,670.2,115,662.6,122.7z"/>
<path class="st1" d="M825,53.1c-11.1-11.3-25.2-16.9-42.2-16.9c-7.2,0-14,1.4-20.4,4.2c-6.4,2.7-12.2,6.8-17.3,12.1V38.6h-20.5
	v148.9h20.2v-50c5.5,5.5,11.5,9.7,18,12.4c6.5,2.8,13.6,4.1,21.2,4.1c8.6,0,16.2-1.4,23-4.2c6.7-2.8,12.9-7.2,18.6-13.1
	c5.2-5.5,9.2-11.8,12.1-18.9c2.8-7.1,4.2-14.6,4.2-22.4C841.8,78.4,836.2,64.3,825,53.1z M809.4,123.1c-7.6,7.5-16.6,11.3-27.2,11.3
	c-10.4,0-19.3-3.9-26.7-11.8c-7.5-7.8-11.2-17.3-11.2-28.4c0-10.3,3.8-19.4,11.4-27.1c7.6-7.7,16.4-11.6,26.3-11.6
	c10.8,0,20,3.8,27.5,11.5s11.2,17.3,11.2,28.6C820.7,106.4,817,115.5,809.4,123.1z"/>
<path class="st1" d="M429.7,54.5L416.3,69c-6.5-6.9-14.2-14-20.5-14.4c-5.1-0.4-9.2,2.7-11.7,6.4c-2.2,3.3-1.6,8.8,0.8,12.1
	c2.3,3.1,5.8,5.4,7.2,6.2c2.8,1.7,4.2,2.6,8.3,4.8l10.8,5.8c6.1,3.2,11.1,7.5,13.7,11.4c3,4.5,4.9,10.7,4.9,17.3
	c0,7.7-1.9,16.7-8.7,23.2c-6.7,6.5-15.2,9.9-26.5,9.9c-15,0-27-6.2-35.9-18.8l11.9-13.7c3,3.8,7.7,8.5,11.7,10.9
	c4.1,2.3,8.3,3.6,11.5,3.6c3.5,0,8-1.1,11.2-5.1c2.3-2.7,4.8-5.9,4.4-10.4c-0.3-6-4.8-11.2-12.6-14.5l-12.2-6.6
	c-15.8-8.7-21.2-16-21.2-29.4c0-8.7,2.3-15.9,8.6-22.1c6.3-6.1,14.3-9.2,24.1-9.2c6.7,0,13,1.6,18.9,4.7
	C420.6,44.2,425.6,48.6,429.7,54.5z"/>
</svg>
